<svg id="Layer_1" enable-background="new 0 0 256 256" height="512" viewBox="0 0 256 256" width="512" xmlns="http://www.w3.org/2000/svg"><ellipse cx="112.238" cy="135.817" fill="#fcc24c" rx="87.436" ry="87.436" transform="matrix(.707 -.707 .707 .707 -63.163 119.144)"/><ellipse cx="112.238" cy="135.817" fill="#f4efed" rx="36.432" ry="36.432" transform="matrix(.707 -.707 .707 .707 -63.163 119.144)"/><ellipse cx="112.238" cy="135.817" fill="#7bac51" rx="14.573" ry="14.573" transform="matrix(.993 -.122 .122 .993 -15.754 14.731)"/><path d="m112.238 174.249c-21.191 0-38.432-17.24-38.432-38.432s17.24-38.432 38.432-38.432 38.432 17.24 38.432 38.432-17.24 38.432-38.432 38.432zm0-72.864c-18.985 0-34.432 15.446-34.432 34.432s15.446 34.432 34.432 34.432 34.432-15.446 34.432-34.432-15.446-34.432-34.432-34.432z" fill="#690589"/><path d="m112.238 152.39c-9.138 0-16.572-7.435-16.572-16.573s7.435-16.573 16.572-16.573 16.572 7.435 16.572 16.573-7.434 16.573-16.572 16.573zm0-29.146c-6.933 0-12.572 5.64-12.572 12.573s5.64 12.573 12.572 12.573 12.572-5.64 12.572-12.573-5.639-12.573-12.572-12.573z" fill="#690589"/><path d="m108.768 222.927c1.764.146 3.544.232 5.333.279 47.426-.995 85.573-39.724 85.573-87.389s-38.147-86.394-85.573-87.389c-1.79.047-3.57.133-5.333.279 44.877 3.706 80.149 41.277 80.149 87.11s-35.273 83.404-80.149 87.11z" fill="#dea42e"/><path d="m115.709 48.707c-1.764-.146-3.544-.232-5.333-.279-47.426.995-85.573 39.724-85.573 87.389s38.147 86.394 85.573 87.389c1.79-.047 3.57-.133 5.333-.279-44.877-3.706-80.149-41.277-80.149-87.11s35.272-83.404 80.149-87.11z" fill="#fce06a"/><path d="m112.238 225.253c-49.314 0-89.436-40.121-89.436-89.436s40.121-89.436 89.436-89.436 89.436 40.121 89.436 89.436-40.121 89.436-89.436 89.436zm0-174.872c-47.109 0-85.436 38.326-85.436 85.436s38.326 85.436 85.436 85.436 85.436-38.327 85.436-85.436-38.326-85.436-85.436-85.436z" fill="#690589"/><path d="m35.336 136.042c-1.104 0-2-.896-2-2 0-4.173.422-8.346 1.255-12.402.223-1.082 1.276-1.78 2.361-1.557 1.082.222 1.779 1.279 1.557 2.361-.778 3.792-1.173 7.694-1.173 11.598 0 1.104-.896 2-2 2z" fill="#690589"/><ellipse cx="52.951" cy="48.715" fill="#f4efed" rx="44.715" ry="44.715" transform="matrix(.16 -.987 .987 .16 -3.617 93.179)"/><path d="m52.951 4c-1.189 0-2.364.061-3.53.152 23.044 1.802 41.185 21.057 41.185 44.564 0 23.506-18.141 42.762-41.185 44.563 1.166.091 2.341.152 3.53.152 24.695 0 44.715-20.02 44.715-44.715 0-24.696-20.02-44.716-44.715-44.716z" fill="#d6d1cf"/><path d="m52.951 93.43c1.189 0 2.364-.06 3.53-.152-23.043-1.802-41.185-21.057-41.185-44.563s18.142-42.762 41.185-44.564c-1.166-.09-2.341-.151-3.53-.151-24.696 0-44.715 20.02-44.715 44.715 0 24.696 20.019 44.715 44.715 44.715z" fill="#fff"/><path d="m52.951 95.43c-25.759 0-46.716-20.956-46.716-46.715s20.957-46.715 46.716-46.715 46.715 20.957 46.715 46.715-20.956 46.715-46.715 46.715zm0-89.43c-23.554 0-42.716 19.162-42.716 42.715s19.162 42.715 42.716 42.715c23.553 0 42.715-19.162 42.715-42.715s-19.162-42.715-42.715-42.715z" fill="#690589"/><path d="m29.229 71.453c1.223 3.413 6.355 4.696 11.462 2.865s8.255-6.081 7.032-9.494-6.355-4.696-11.462-2.865-8.255 6.082-7.032 9.494z" fill="#ff4397"/><path d="m76.936 32.464-28.949 8.412v-9.698l28.949-8.412z" fill="#ff4397"/><path d="m58.14 62.971c1.223 3.413 6.355 4.695 11.462 2.865 5.107-1.831 8.255-6.081 7.032-9.494s-6.355-4.695-11.462-2.865c-5.107 1.831-8.255 6.082-7.032 9.494z" fill="#ff4397"/><g fill="#690589"><path d="m47.987 42.876c-.428 0-.851-.138-1.201-.4-.503-.378-.799-.97-.799-1.6v-9.698c0-.89.588-1.672 1.441-1.92l28.949-8.413c.604-.176 1.256-.057 1.76.321.503.378.799.97.799 1.6v9.698c0 .89-.588 1.672-1.442 1.92l-28.949 8.412c-.183.054-.371.08-.558.08zm2-10.196v5.532l24.949-7.25v-5.532zm26.95-.216h.01z"/><path d="m47.987 68.021c-1.104 0-2-.896-2-2v-25.145c0-1.104.896-2 2-2s2 .896 2 2v25.145c0 1.104-.895 2-2 2z"/><path d="m76.937 59.587c-1.104 0-2-.896-2-2v-25.145c0-1.104.896-2 2-2s2 .896 2 2v25.145c0 1.104-.896 2-2 2z"/><path d="m64.976 68.671c-1.056 0-2.081-.12-3.046-.361-2.792-.698-4.859-2.398-5.672-4.665-.812-2.266-.296-4.892 1.418-7.206 1.561-2.107 3.983-3.828 6.822-4.846 6.236-2.236 12.398-.449 14.02 4.073 1.619 4.521-2 9.814-8.24 12.052-1.762.633-3.574.953-5.302.953zm4.816-14.015c-1.248 0-2.61.226-3.944.705-2.071.742-3.879 2.004-4.958 3.461-.531.717-1.351 2.123-.866 3.475.484 1.351 2.01 1.917 2.876 2.133 1.762.441 3.957.266 6.028-.476 3.923-1.406 6.645-4.647 5.824-6.937-.541-1.51-2.537-2.361-4.96-2.361z"/><path d="m36.04 77.163c-4.12 0-7.546-1.832-8.694-5.035-1.619-4.521 2-9.814 8.24-12.051 2.837-1.018 5.803-1.228 8.348-.591 2.793.698 4.86 2.398 5.672 4.664s.296 4.893-1.417 7.206c-1.562 2.107-3.984 3.829-6.822 4.846-1.819.651-3.633.961-5.327.961zm-4.929-6.384c.82 2.29 4.982 3.063 8.905 1.657 2.071-.742 3.878-2.004 4.957-3.461.531-.718 1.351-2.124.866-3.476s-2.01-1.917-2.876-2.133c-1.761-.441-3.956-.266-6.028.476-3.922 1.406-6.643 4.647-5.824 6.937z"/></g><path d="m8.236 205.263h20.112v46.737h-20.112z" fill="#ff4397"/><path d="m37.65 181.981h20.112v70.019h-20.112z" fill="#ff4397"/><path d="m67.065 193.622h20.112v58.378h-20.112z" fill="#ff4397"/><path d="m8.236 205.263h5.821v46.737h-5.821z" fill="#ff61b5"/><path d="m28.348 254h-20.113c-1.104 0-2-.896-2-2v-46.737c0-1.104.896-2 2-2h20.112c1.104 0 2 .896 2 2v46.737c.001 1.104-.895 2-1.999 2zm-18.113-4h16.112v-42.737h-16.112z" fill="#690589"/><path d="m57.762 254h-20.112c-1.104 0-2-.896-2-2v-70.02c0-1.104.896-2 2-2h20.111c1.104 0 2 .896 2 2v70.02c.001 1.104-.895 2-1.999 2zm-18.112-4h16.111v-66.02h-16.111z" fill="#690589"/><path d="m87.176 254h-20.112c-1.104 0-2-.896-2-2v-58.378c0-1.104.896-2 2-2h20.111c1.104 0 2 .896 2 2v58.378c.001 1.104-.895 2-1.999 2zm-18.112-4h16.111v-54.378h-16.111z" fill="#690589"/><path d="m238.256 110.456c-5.251 0-9.509 4.257-9.509 9.509v-19.218c0-5.252-4.257-9.509-9.509-9.509s-9.509 4.257-9.509 9.509v-4.431c0-5.252-4.257-9.509-9.509-9.509s-9.509 4.257-9.509 9.509v14.661c0-5.252-4.257-9.509-9.509-9.509s-9.509 4.257-9.509 9.509v42.349 12.455c0-5.262-4.266-9.529-9.528-9.529s-9.529 4.266-9.529 9.529v33.71c0 10.525 8.532 19.057 19.057 19.057v1.271c0 7.021 5.692 12.713 12.713 12.713v19.468h52.483v-19.585c6.22-.804 10.874-6.13 10.874-12.597v-99.175-.679c.001-5.251-4.256-9.508-9.507-9.508z" fill="#ff9f70"/><path d="m247.764 219.819v-99.175-.679c0-5.162-4.117-9.354-9.245-9.495v37.72 71.629c0 6.338-4.472 11.577-10.506 12.54-1.13.098-1.998 1.044-1.998 2.178v17.463h1.58 9.294v-19.585c6.221-.803 10.875-6.13 10.875-12.596z" fill="#e18152"/><path d="m189.435 232.244c-5.735-1.23-10.037-6.323-10.037-12.426 0-.689-.531-1.266-1.219-1.309-9.957-.629-17.838-8.903-17.838-19.019v-33.71c0-3.89 2.335-7.23 5.676-8.711-1.519-.673-3.242-.969-5.057-.742-4.813.603-8.324 4.881-8.324 9.731v33.432c0 10.524 8.532 19.057 19.057 19.057v1.271c0 7.021 5.692 12.713 12.713 12.713v19.469h7.704v-18.285c0-.673-.508-1.238-1.177-1.31z" fill="#ffbd8e"/><path d="m171.694 194.697c-1.104 0-2-.896-2-2v-26.917c0-1.104.896-2 2-2s2 .896 2 2v26.917c0 1.104-.895 2-2 2z" fill="#690589"/><path d="m209.729 163.594c-1.104 0-2-.896-2-2v-65.279c0-4.14-3.368-7.509-7.509-7.509s-7.509 3.369-7.509 7.509v25.655c0 1.104-.896 2-2 2s-2-.896-2-2v-25.655c0-6.346 5.163-11.509 11.509-11.509s11.509 5.163 11.509 11.509v65.279c0 1.105-.895 2-2 2z" fill="#690589"/><path d="m209.729 163.594c-1.104 0-2-.896-2-2v-60.848c0-6.346 5.163-11.508 11.509-11.508 3.073 0 5.964 1.197 8.138 3.371 2.174 2.173 3.371 5.063 3.371 8.138v21.224c0 1.104-.896 2-2 2s-2-.896-2-2v-21.224c0-2.005-.781-3.891-2.199-5.31-1.419-1.418-3.304-2.199-5.31-2.199-4.141 0-7.509 3.368-7.509 7.508v60.848c0 1.105-.895 2-2 2z" fill="#690589"/><path d="m236.89 254h-52.482c-1.104 0-2-.896-2-2v-17.604c-6.965-.951-12.395-6.794-12.699-13.942-10.684-1.004-19.071-10.023-19.071-20.964v-33.71c0-6.357 5.172-11.528 11.529-11.528 2.875 0 5.507 1.058 7.528 2.804v-46.08c0-6.346 5.163-11.509 11.509-11.509s11.509 5.163 11.509 11.509v50.618c0 1.104-.896 2-2 2s-2-.896-2-2v-50.618c0-4.14-3.368-7.509-7.509-7.509s-7.509 3.369-7.509 7.509v54.804c0 1.104-.896 2-2 2s-2-.896-2-2c0-4.151-3.377-7.528-7.528-7.528s-7.529 3.377-7.529 7.528v33.71c0 9.405 7.652 17.057 17.058 17.057 1.104 0 2 .896 2 2v1.271c0 5.907 4.806 10.713 10.713 10.713 1.104 0 2 .896 2 2v17.469h48.482v-17.584c0-1.005.746-1.854 1.744-1.983 5.291-.684 9.131-5.147 9.131-10.614v-99.854c0-4.14-3.368-7.509-7.509-7.509s-7.509 3.369-7.509 7.509v41.63c0 1.104-.896 2-2 2s-2-.896-2-2v-41.63c0-6.346 5.163-11.509 11.509-11.509s11.509 5.163 11.509 11.509v99.854c0 6.773-4.566 12.608-10.875 14.244v17.937c-.001 1.104-.897 2-2.001 2z" fill="#690589"/></svg>