<?xml version="1.0" encoding="UTF-8" standalone="no" ?>
<!DOCTYPE svg PUBLIC "-//W3C//DTD SVG 1.1//EN" "http://www.w3.org/Graphics/SVG/1.1/DTD/svg11.dtd">
<svg version="1.1" xmlns="http://www.w3.org/2000/svg" xmlns:xlink="http://www.w3.org/1999/xlink" preserveAspectRatio="xMidYMid meet" viewBox="0 0 640 640" width="640" height="640">
    <defs>
        <path d="M372.6 228.36C363.75 231.47 293.01 256.37 284.16 259.48C281.38 259.48 279.12 262.34 279.12 265.86C279.12 273.87 279.12 337.95 279.12 345.96C276.07 343.66 272.59 342.43 269.04 342.39C257.9 342.39 248.87 353.81 248.87 367.9C248.87 381.98 257.9 393.4 269.04 393.4C280.18 393.4 289.21 381.98 289.21 367.9C289.21 363.95 289.21 344.22 289.21 308.71L369.87 280.4C369.87 308.26 369.87 323.73 369.87 326.83C366.82 324.53 363.34 323.3 359.79 323.25C348.65 323.25 339.62 334.67 339.62 348.76C339.62 362.85 348.65 374.27 359.79 374.27C370.93 374.27 379.96 362.85 379.96 348.76C379.96 337.28 379.96 245.45 379.96 233.97C379.96 230.45 377.7 227.6 374.92 227.6C374.11 227.61 373.31 227.87 372.6 228.36ZM289.21 295.96L289.21 270.45C337.61 253.46 364.5 244.02 369.87 242.14C369.87 242.14 369.87 267.64 369.87 267.64C359.12 271.42 332.23 280.86 289.21 295.96Z" id="b57Ri7oAyV"></path>
    </defs>
    <g>
        <g>
            <g>
                <use xlink:href="#b57Ri7oAyV" opacity="1" fill="#ffffff" fill-opacity="1"></use>
                <g>
                    <use xlink:href="#b57Ri7oAyV" opacity="1" fill-opacity="0" stroke="#000000" stroke-width="1" stroke-opacity="0"></use>
                </g>
            </g>
        </g>
    </g>
</svg>