<?xml version="1.0" encoding="UTF-8" standalone="no"?>
<!DOCTYPE svg PUBLIC "-//W3C//DTD SVG 1.1//EN" "http://www.w3.org/Graphics/SVG/1.1/DTD/svg11.dtd">
<svg version="1.1" xmlns="http://www.w3.org/2000/svg" xmlns:xlink="http://www.w3.org/1999/xlink" preserveAspectRatio="xMidYMid meet" viewBox="0 0 640 640" width="640" height="640"><defs><path d="M236.16 246.32C256.21 262.11 276.05 277.68 296.11 293.47C303.15 299.01 310.19 304.56 317.23 310.11C319.79 312.24 320.64 312.03 321.28 308.4C322.35 302.21 323.84 296.24 325.12 290.05C329.39 268.93 356.27 248.88 380.37 250.8C389.55 251.44 397.23 255.49 401.92 263.81C405.97 271.07 405.33 277.04 399.57 283.23C397.23 285.57 394.88 287.92 392.32 290.05C381.23 298.8 378.03 310.53 379.09 323.97C380.16 336.13 381.23 348.29 382.29 360.45C382.72 364.29 383.57 368.35 383.57 372.19C383.57 378.16 385.92 382.43 390.83 385.63C393.39 387.33 395.09 389.47 398.93 387.33C400.21 386.48 403.63 387.55 405.12 388.83C416.21 397.36 427.09 405.89 437.97 414.64C441.6 417.63 442.03 420.4 439.89 423.17C437.55 426.16 434.56 426.16 430.72 423.17C422.4 416.56 414.08 410.16 405.76 403.33C402.56 400.77 400.85 400.99 398.29 404.19C376.75 430.64 355.2 457.09 333.44 483.55C331.31 486.11 332.16 487.17 334.29 488.88C342.4 495.49 350.08 502.32 358.19 509.15C359.04 509.79 359.89 510.43 360.53 511.07C362.45 513.41 362.67 515.97 360.75 518.53C358.83 520.88 356.05 521.73 353.49 519.81C350.08 517.25 347.09 514.69 343.89 511.92C336.21 505.52 328.53 499.12 321.07 492.51C318.51 490.37 316.37 487.81 318.72 484.61C320.64 481.84 319.57 480.77 317.65 479.07C313.39 475.44 309.12 472.45 303.15 471.6C288.85 469.68 276.27 463.71 265.17 454.11C251.52 442.37 237.01 431.28 223.57 419.33C219.09 415.49 215.25 410.37 212.69 405.25C207.15 394.16 211.2 381.15 221.65 374.75C224.43 373.04 224.85 371.55 224 368.77C221.65 360.45 227.84 346.37 236.16 342.96C239.15 341.68 240 340.19 240 336.77C239.57 327.6 242.77 319.92 250.24 314.59C252.8 312.67 252.16 311.81 250.03 310.11C237.87 300.29 225.71 290.48 213.76 280.45C210.13 277.47 207.15 273.63 204.37 269.79C201.39 265.52 201.6 260.83 203.73 256.13C206.93 246.75 214.83 240.56 222.72 240.56C228.05 240.56 232.32 243.12 236.16 246.32ZM223.15 402.05C225.49 405.47 228.27 408.67 231.25 411.44C244.69 422.96 258.56 434.05 272 445.36C281.39 453.25 291.84 458.59 303.79 459.87C311.68 460.72 317.87 463.49 323.41 469.04C327.04 472.67 327.25 472.24 330.45 468.4C347.31 447.92 363.95 427.44 380.59 407.17C382.93 404.19 387.41 400.99 386.99 398.43C386.56 395.44 382.08 392.88 379.09 390.32C376.53 387.97 373.55 386.05 373.33 382C371.63 359.6 369.28 337.41 367.79 315.01C367.15 303.92 371.41 294.32 379.31 286.43C382.51 283.23 386.13 280.24 389.33 277.04C393.6 272.99 393.39 270.21 389.33 265.95C385.71 262.32 381.01 261.47 376.11 261.68C359.68 262.11 338.77 276.4 335.36 293.47C333.65 301.79 331.09 310.11 330.45 318.43C329.6 328.03 325.33 331.65 316.16 323.97C301.87 312.03 287.15 300.93 272.64 289.63C257.92 278.11 243.2 266.59 228.48 254.85C225.92 252.93 223.57 251.01 219.95 252.51C212.69 255.49 210.77 263.39 216.32 268.93C218.24 270.85 220.16 272.77 222.29 274.48C238.08 287.49 253.65 300.51 269.44 313.31C270.51 314.16 272.43 315.01 272.64 316.08C273.28 318.21 273.92 320.99 273.07 322.91C272 325.47 269.23 325.89 266.67 325.04C265.81 324.61 264.96 323.97 263.89 323.55C259.2 321.2 257.07 321.63 253.44 325.47C248.32 331.23 248.32 336.99 253.44 342.75C254.51 344.03 256 345.09 256.85 346.37C259.41 349.57 257.71 354.48 253.65 355.12C251.95 355.33 250.03 354.48 248.53 353.63C242.35 350.43 238.51 351.49 235.31 357.68C232.11 363.65 232.96 368.77 238.08 374.11C240.64 376.67 243.41 379.23 240.64 383.07C238.08 386.48 234.88 385.63 231.89 383.92C228.48 382 225.71 383.28 223.79 386.05C222.51 388.4 221.44 391.39 220.16 394.16C221.23 397.15 221.65 399.92 223.15 402.05Z" id="alPdTuE8p"></path><path d="M297.39 156.08C297.39 151.39 299.09 149.25 302.51 149.04C306.35 148.83 308.69 151.17 308.69 155.87C308.91 169.52 308.69 183.39 308.69 197.04C308.69 200.03 307.2 202.59 304.43 203.23C302.72 203.65 300.16 202.8 298.88 201.73C297.81 200.67 297.39 198.32 297.39 196.61C297.39 190 297.39 183.17 297.39 176.13C297.39 169.52 297.39 162.91 297.39 156.08Z" id="g1pP4Z7Uqf"></path><path d="M245.97 215.6C243.84 214.32 241.92 212.61 240 211.12C232.75 204.93 225.49 198.96 218.24 192.77C214.83 189.79 214.4 187.01 216.96 184.24C219.31 181.47 222.29 181.25 225.71 184.24C234.24 191.28 242.77 198.53 251.31 205.79C252.8 207.07 253.65 208.99 254.51 209.84C254.51 214.75 249.6 217.73 245.97 215.6Z" id="e4E6uiM3F9"></path><path d="M345.81 484.61C345.81 476.51 351.36 470.75 359.25 470.53C366.93 470.32 373.12 476.51 373.33 484.19C373.55 491.65 367.36 498.05 359.68 498.27C352 498.27 345.81 492.29 345.81 484.61ZM353.92 484.19C353.92 486.96 356.69 489.95 359.47 489.95C362.45 489.95 365.01 487.6 365.01 484.4C365.23 481.2 362.88 478.85 359.68 478.85C356.69 478.85 353.92 481.41 353.92 484.19Z" id="f1lJS0MgFw"></path><path d="M370.99 142C371.2 147.97 366.51 153.73 360.75 153.95C359.04 153.95 356.69 152.45 356.05 150.96C355.63 149.89 357.33 147.55 358.4 146.05C358.83 145.41 360.53 145.63 361.17 144.99C362.03 144.13 362.88 142.85 362.67 142C362.45 141.15 361.17 139.87 360.32 139.65C359.47 139.44 357.97 140.08 357.12 140.93C356.27 141.79 356.48 143.49 355.63 144.13C354.56 145.2 352.64 146.48 351.57 146.05C350.29 145.63 348.8 143.71 348.59 142.21C347.52 136.45 353.28 130.91 359.68 130.91C365.65 130.91 370.56 135.81 370.99 142Z" id="a2lJPO9Dax"></path><path d="M353.07 221.79C348.37 225.84 343.68 229.89 338.77 233.73C335.36 236.51 332.16 236.29 330.03 233.73C327.89 231.17 328.32 227.97 331.52 225.2C336.43 220.93 341.55 216.45 346.67 212.61C348.16 211.55 350.93 211.33 352.85 211.97C354.35 212.4 355.41 214.75 356.91 216.67C355.41 218.59 354.56 220.51 353.07 221.79Z" id="d4XDPMEjx"></path><path d="M257.92 145.84C254.93 148.19 254.72 150.53 257.49 153.31C258.35 154.16 257.92 157.36 257.07 158.64C256.43 159.49 253.44 159.49 252.37 158.85C249.81 156.93 247.89 155.65 245.12 158.85C243.63 160.77 240.85 160.56 239.79 158.43C238.93 156.93 238.93 154.16 240 153.09C241.92 150.75 242.77 149.47 240 147.12C238.08 145.41 237.87 143.07 239.79 141.15C241.71 139.01 244.05 139.65 245.76 141.36C248.11 143.92 249.6 143.28 251.73 141.15C252.59 140.29 254.72 140.08 256.21 140.51C257.49 140.51 258.13 142.21 258.99 143.28C258.56 144.35 258.56 145.41 257.92 145.84Z" id="bnve3H0pU"></path><path d="M387.63 192.77C383.57 196.61 379.31 200.24 374.83 203.65C371.63 206.21 368.21 206 366.08 203.23C363.95 200.24 364.8 197.47 367.36 195.12C371.84 191.28 376.32 187.23 381.23 183.6C385.07 180.61 390.19 182.96 390.61 188.51C389.97 189.57 389.12 191.49 387.63 192.77Z" id="c6lR5vl4zx"></path><path d="M277.33 229.89C277.33 231.6 276.05 234.16 274.77 235.01C273.28 235.87 270.51 235.87 269.01 235.01C266.24 233.31 263.68 231.17 261.55 228.61C260.48 227.33 260.05 224.56 260.69 223.07C261.12 221.15 263.25 220.08 264.32 219.44C268.8 219.23 277.55 226.48 277.33 229.89Z" id="cFn1Sq7zj"></path><path d="M297.39 124.29C298.45 122.59 300.16 120.24 301.87 120.03C303.57 119.81 306.13 121.09 307.41 122.59C309.33 124.72 309.33 132.19 307.2 133.68C305.49 134.96 302.51 135.6 300.59 135.17C297.39 134.11 297.17 130.91 297.39 126.85C297.39 126.64 296.96 125.15 297.39 124.29Z" id="bcPyVUvDX"></path></defs><g><g><g><use xlink:href="#alPdTuE8p" opacity="1" fill="#7d60b1" fill-opacity="0.69"></use><g><use xlink:href="#alPdTuE8p" opacity="1" fill-opacity="0" stroke="#000000" stroke-width="1" stroke-opacity="0"></use></g></g><g><use xlink:href="#g1pP4Z7Uqf" opacity="1" fill="#7d60b1" fill-opacity="0.69"></use><g><use xlink:href="#g1pP4Z7Uqf" opacity="1" fill-opacity="0" stroke="#000000" stroke-width="1" stroke-opacity="0"></use></g></g><g><use xlink:href="#e4E6uiM3F9" opacity="1" fill="#7d60b1" fill-opacity="0.69"></use><g><use xlink:href="#e4E6uiM3F9" opacity="1" fill-opacity="0" stroke="#000000" stroke-width="1" stroke-opacity="0"></use></g></g><g><use xlink:href="#f1lJS0MgFw" opacity="1" fill="#7d60b1" fill-opacity="0.69"></use><g><use xlink:href="#f1lJS0MgFw" opacity="1" fill-opacity="0" stroke="#000000" stroke-width="1" stroke-opacity="0"></use></g></g><g><use xlink:href="#a2lJPO9Dax" opacity="1" fill="#7d60b1" fill-opacity="0.69"></use><g><use xlink:href="#a2lJPO9Dax" opacity="1" fill-opacity="0" stroke="#000000" stroke-width="1" stroke-opacity="0"></use></g></g><g><use xlink:href="#d4XDPMEjx" opacity="1" fill="#7d60b1" fill-opacity="0.69"></use><g><use xlink:href="#d4XDPMEjx" opacity="1" fill-opacity="0" stroke="#000000" stroke-width="1" stroke-opacity="0"></use></g></g><g><use xlink:href="#bnve3H0pU" opacity="1" fill="#7d60b1" fill-opacity="0.69"></use><g><use xlink:href="#bnve3H0pU" opacity="1" fill-opacity="0" stroke="#000000" stroke-width="1" stroke-opacity="0"></use></g></g><g><use xlink:href="#c6lR5vl4zx" opacity="1" fill="#7d60b1" fill-opacity="0.69"></use><g><use xlink:href="#c6lR5vl4zx" opacity="1" fill-opacity="0" stroke="#000000" stroke-width="1" stroke-opacity="0"></use></g></g><g><use xlink:href="#cFn1Sq7zj" opacity="1" fill="#7d60b1" fill-opacity="0.69"></use><g><use xlink:href="#cFn1Sq7zj" opacity="1" fill-opacity="0" stroke="#000000" stroke-width="1" stroke-opacity="0"></use></g></g><g><use xlink:href="#bcPyVUvDX" opacity="1" fill="#7d60b1" fill-opacity="0.69"></use><g><use xlink:href="#bcPyVUvDX" opacity="1" fill-opacity="0" stroke="#000000" stroke-width="1" stroke-opacity="0"></use></g></g></g></g></svg>