<?xml version="1.0" encoding="UTF-8" standalone="no"?>
<!DOCTYPE svg PUBLIC "-//W3C//DTD SVG 1.1//EN" "http://www.w3.org/Graphics/SVG/1.1/DTD/svg11.dtd">
<svg version="1.1" xmlns="http://www.w3.org/2000/svg" xmlns:xlink="http://www.w3.org/1999/xlink" preserveAspectRatio="xMidYMid meet" viewBox="0 0 640 640" width="140" height="140"><defs><path d="M453.68 373.16C456.08 380.35 475.24 437.84 477.64 445.03C485.06 467.39 472.99 491.53 450.65 499C447.78 499.96 379.34 522.52 309.16 522.52C238.98 522.52 170.54 499.96 167.66 499C145.31 491.54 133.23 467.38 140.69 445.02C141.32 443.11 142.1 441.25 143 439.44C146.53 432.39 174.75 375.94 178.28 368.88C168.48 371.72 159.14 374.88 150.39 378.38C101.45 397.95 74.49 426.42 74.49 458.52C74.49 490.63 101.45 519.1 150.39 538.67C193.14 555.77 249.53 565.19 309.16 565.19C368.79 565.19 425.18 555.77 467.93 538.67C516.87 519.1 543.83 490.63 543.83 458.52C543.83 426.42 516.87 397.95 467.93 378.38C463.35 376.54 458.57 374.82 453.68 373.16Z" id="b1fINE2WJ6"></path><path d="M221.16 147.63C221.16 150.57 223.55 152.96 226.49 152.96C229.44 152.96 231.83 150.57 231.83 147.63C231.71 126.68 248.56 109.59 269.51 109.42C272.45 109.42 274.84 107.04 274.84 104.09C274.84 101.14 272.45 98.76 269.51 98.76C248.56 98.59 231.71 81.5 231.83 60.55C231.83 57.61 229.44 55.22 226.49 55.22C223.55 55.22 221.16 57.61 221.16 60.55C221.28 81.5 204.42 98.59 183.48 98.76C180.53 98.76 178.15 101.14 178.15 104.09C178.15 107.04 180.53 109.42 183.48 109.42C204.42 109.59 221.28 126.68 221.16 147.63Z" id="b6sO2RnNF"></path><path d="M522.49 223.22C522.49 220.28 520.11 217.89 517.16 217.89C514.21 217.89 511.83 220.28 511.83 223.22C511.94 244.16 495.09 261.25 474.15 261.42C471.2 261.42 468.81 263.81 468.81 266.76C468.81 269.7 471.2 272.09 474.15 272.09C495.09 272.26 511.94 289.35 511.83 310.29C511.83 313.24 514.21 315.63 517.16 315.63C520.11 315.63 522.49 313.24 522.49 310.29C522.38 289.35 539.23 272.26 560.17 272.09C563.12 272.09 565.51 269.7 565.51 266.76C565.51 263.81 563.12 261.42 560.17 261.42C539.23 261.25 522.38 244.16 522.49 223.22Z" id="crr8LZqTS"></path><path d="M127.83 315.63C127.83 318.57 130.21 320.96 133.16 320.96C136.11 320.96 138.49 318.57 138.49 315.63C138.38 294.68 155.23 277.59 176.17 277.42C179.12 277.42 181.51 275.04 181.51 272.09C181.51 269.14 179.12 266.76 176.17 266.76C155.23 266.59 138.38 249.5 138.49 228.55C138.49 225.61 136.11 223.22 133.16 223.22C130.21 223.22 127.83 225.61 127.83 228.55C127.94 249.5 111.09 266.59 90.15 266.76C87.2 266.76 84.81 269.14 84.81 272.09C84.81 275.04 87.2 277.42 90.15 277.42C111.09 277.59 127.94 294.68 127.83 315.63Z" id="esOZIoeg"></path><path d="M266.49 279.02C244.64 300.87 232.5 313.01 230.07 315.44C228.45 317.06 227.1 318.93 226.07 320.98C223.2 326.74 200.19 372.77 197.31 378.52C228.8 388.58 267.41 394.52 309.16 394.52C355.79 394.52 398.49 387.12 431.75 374.83C430.8 371.99 426.06 357.77 417.53 332.17C427.96 311.31 433.75 299.72 434.91 297.4C439.01 289.19 437.4 279.27 430.91 272.78C428.48 270.35 416.34 258.21 394.49 236.36L394.49 209.64C430.33 161.85 450.24 135.3 454.23 129.99C461.3 120.57 459.38 107.19 449.96 100.13C443.49 95.28 434.85 94.5 427.62 98.11C414.82 104.51 312.42 155.71 299.62 162.11C294.56 164.64 290.71 169.08 288.92 174.44C286.79 180.84 269.72 232.04 267.59 238.44C266.86 240.62 266.49 242.9 266.49 245.19C266.49 249.7 266.49 260.98 266.49 279.02Z" id="aP9N8UlX3"></path><path d="M162.08 448.98C156.81 459.52 161.08 472.34 171.62 477.61C172.52 478.06 173.46 478.44 174.41 478.76C177.16 479.68 242.46 501.19 309.16 501.19C375.86 501.19 441.16 479.68 443.91 478.76C455.08 475.04 461.13 462.96 457.4 451.78C455.47 445.98 440 399.57 438.06 393.76C403.99 407.49 358.77 415.86 309.16 415.86C263.29 415.86 221.21 408.7 188.18 396.78C182.96 407.22 164.69 443.76 162.08 448.98Z" id="a1cRr1dAni"></path></defs><g><g><g><use xlink:href="#b1fINE2WJ6" opacity="1" fill="#77629d" fill-opacity="1"></use><g><use xlink:href="#b1fINE2WJ6" opacity="1" fill-opacity="0" stroke="#000000" stroke-width="1" stroke-opacity="0"></use></g></g><g><use xlink:href="#b6sO2RnNF" opacity="1" fill="#77629d" fill-opacity="1"></use><g><use xlink:href="#b6sO2RnNF" opacity="1" fill-opacity="0" stroke="#000000" stroke-width="1" stroke-opacity="0"></use></g></g><g><use xlink:href="#crr8LZqTS" opacity="1" fill="#77629d" fill-opacity="1"></use><g><use xlink:href="#crr8LZqTS" opacity="1" fill-opacity="0" stroke="#000000" stroke-width="1" stroke-opacity="0"></use></g></g><g><use xlink:href="#esOZIoeg" opacity="1" fill="#77629d" fill-opacity="1"></use><g><use xlink:href="#esOZIoeg" opacity="1" fill-opacity="0" stroke="#000000" stroke-width="1" stroke-opacity="0"></use></g></g><g><use xlink:href="#aP9N8UlX3" opacity="1" fill="#77629d" fill-opacity="1"></use><g><use xlink:href="#aP9N8UlX3" opacity="1" fill-opacity="0" stroke="#000000" stroke-width="1" stroke-opacity="0"></use></g></g><g><use xlink:href="#a1cRr1dAni" opacity="1" fill="#77629d" fill-opacity="1"></use><g><use xlink:href="#a1cRr1dAni" opacity="1" fill-opacity="0" stroke="#000000" stroke-width="1" stroke-opacity="0"></use></g></g></g></g></svg>