<svg height="472pt" viewBox="-25 0 472 472.00455" width="472pt" xmlns="http://www.w3.org/2000/svg"><g fill="#cc7400"><path d="m389.5 48.78125 4.152344-15.449219 28.804687 7.738281-4.152343 15.453126zm0 0"/><path d="m412.097656 79.714844-26.96875-7.308594 4.144532-15.449219 26.960937 7.304688zm0 0"/><path d="m370.402344 44.140625-29.367188-8.3125 4.136719-15.457031 29.375 8.3125zm0 0"/><path d="m364.5 67.050781-29.671875-8.046875 4.132813-15.457031 29.671874 8.050781zm0 0"/></g><path d="m247.601562 438.40625c-2.554687-19.167969-16.320312-34.949219-34.960937-40.082031l-2.71875-.71875-39.039063-10.640625-34.878906 29.039062-34.882812-29.039062-41.757813 11.359375c-20.863281 5.730469-35.332031 24.683593-35.359375 46.320312v27.359375h224v-27.359375c-.011718-2.085937-.144531-4.167969-.402344-6.238281zm0 0" fill="#3d9ae2"/><path d="m384.640625 88.964844-33.757813 125.839844-.082031.078124c-4.585937-2.851562-9.574219-5.011718-14.796875-6.398437-5.207031-1.433594-10.605468-2.054687-16-1.839844v-.078125l33.679688-125.84375zm0 0" fill="#cc7400"/><path d="m353.84375 80.722656-7.679688-2.078125 9.117188-22.398437 9.042969-22.480469 6.078125-14.882813 30.960937 8.242188-2.242187 16-3.277344 23.917969-3.363281 24-7.679688-2.078125zm0 0" fill="#ff9811"/><path d="m377.523438 393.523438c-11.441407 42.640624-51.601563 68.960937-105.679688 54.480468-8.488281-2.214844-16.679688-5.4375-24.402344-9.597656-33.566406-16.414062-50.425781-54.625-39.917968-90.480469 8.558593-31.761719 42-45.042969 56.640624-69.839843 5.039063-8.640626.636719-20.242188 3.277344-30 6.386719-23.945313 27.789063-40.820313 52.5625-41.441407 5.394532-.214843 10.792969.40625 16 1.839844 5.222656 1.386719 10.210938 3.546875 14.796875 6.398437 21.136719 12.929688 31.234375 38.234376 24.800781 62.160157-2.640624 9.839843-12.160156 17.679687-12.078124 27.601562.238281 28.800781 22.558593 57.121094 14 88.878907zm0 0" fill="#ff9811"/><path d="m280.003906 136.003906c0 8.835938-7.164062 16-16 16-8.839844 0-16-7.164062-16-16 0-8.835937 7.160156-16 16-16 8.835938 0 16 7.164063 16 16zm0 0" fill="#ffd422"/><path d="m216.003906 152.003906c0 8.835938-7.164062 16-16 16-8.839844 0-16-7.164062-16-16 0-8.835937 7.160156-16 16-16 8.835938 0 16 7.164063 16 16zm0 0" fill="#ffd422"/><path d="m104.003906 80.003906c0 8.835938-7.164062 16-16 16-8.839844 0-16-7.164062-16-16 0-8.835937 7.160156-16 16-16 8.835938 0 16 7.164063 16 16zm0 0" fill="#ff6243"/><path d="m40.003906 96.003906c0 8.835938-7.164062 16-16 16-8.839844 0-16-7.164062-16-16 0-8.835937 7.160156-16 16-16 8.835938 0 16 7.164063 16 16zm0 0" fill="#ff6243"/><path d="m280.003906 64.003906v24l-64 16v-24zm0 0" fill="#00ccb3"/><path d="m104.003906 8.003906v24l-64 16v-24zm0 0" fill="#00ccb3"/><path d="m184.003906 299.605469v20.398437c.003906 17.136719-9.148437 32.972656-24 41.519532-14.835937 8.640624-33.167968 8.640624-48 0-3.636718-2.070313-6.976562-4.625-9.921875-7.597657-9.046875-8.964843-14.117187-21.183593-14.078125-33.921875v-20.398437c15.109375 7.027343 31.375 11.230469 48 12.398437 16.621094-1.167968 32.890625-5.371094 48-12.398437zm0 0" fill="#ffdaaa"/><path d="m170.882812 386.964844-34.878906 29.039062-34.882812-29.039062 10.882812-2.960938v-22.480468c14.832032 8.640624 33.164063 8.640624 48 0v22.480468zm0 0" fill="#ffdaaa"/><path d="m192.003906 242.484375v53.519531s-3.042968 1.519532-8 3.601563c-15.109375 7.027343-31.378906 11.230469-48 12.398437-16.625-1.167968-32.890625-5.371094-48-12.398437-4.960937-2.082031-8-3.601563-8-3.601563v-53.519531l56 21.519531zm0 0" fill="#898890"/><path d="m323.761719 254.804688c12.8125 3.417968 20.429687 16.578124 17.003906 29.386718-3.425781 12.8125-16.589844 20.417969-29.398437 16.984375-12.8125-3.433593-20.40625-16.605469-16.964844-29.410156 3.453125-12.769531 16.574218-20.347656 29.359375-16.960937zm0 0" fill="#cc7400"/><path d="m160.003906 361.523438v8c-14.835937 8.640624-33.167968 8.640624-48 0v-8c14.832032 8.640624 33.164063 8.640624 48 0zm0 0" fill="#f2ca96"/><path d="m56.003906 432.003906h16v40h-16zm0 0" fill="#1e81ce"/><path d="m200.003906 440.003906h16v32h-16zm0 0" fill="#1e81ce"/><path d="m69.660156 282.347656-21.65625-21.65625v-36.6875h-16v36.6875l-21.65625 21.65625 11.3125 11.3125 10.34375-10.34375v12.6875h16v-12.6875l10.34375 10.34375zm0 0" fill="#c6c5ca"/><path d="m252.003906 368.105469 4.140625-15.453125 77.273438 20.703125-4.140625 15.453125zm0 0" fill="#ee8700"/><path d="m284.921875 57.699219c-1.933594-1.523438-4.46875-2.0625-6.855469-1.453125l-64 16c-3.5625.886718-6.0625 4.085937-6.0625 7.757812v49.472656c-2.5625-.949218-5.269531-1.445312-8-1.472656-13.257812 0-24 10.746094-24 24s10.742188 24 24 24c13.253906 0 24-10.746094 24-24v-41.757812l48-12v15.199218c-2.566406-.9375-5.273437-1.425781-8-1.441406-13.257812 0-24 10.746094-24 24s10.742188 24 24 24c13.253906 0 24-10.746094 24-24v-72c-.003906-2.460937-1.140625-4.789062-3.082031-6.304687zm-84.917969 102.304687c-4.417968 0-8-3.582031-8-8 0-4.417968 3.582032-8 8-8 4.417969 0 8 3.582032 8 8 0 4.417969-3.582031 8-8 8zm24-66.238281v-7.511719l48-12v7.511719zm40 50.238281c-4.417968 0-8-3.582031-8-8 0-4.417968 3.582032-8 8-8 4.417969 0 8 3.582032 8 8 0 4.417969-3.582031 8-8 8zm0 0" fill="#ff9811"/><path d="m108.921875 1.699219c-1.9375-1.523438-4.472656-2.0625-6.863281-1.453125l-64 16c-3.558594.890625-6.054688 4.089844-6.054688 7.757812v49.472656c-2.5625-.949218-5.269531-1.445312-8-1.472656-13.257812 0-23.99999975 10.746094-23.99999975 24s10.74218775 24 23.99999975 24c13.253906 0 24-10.746094 24-24v-41.757812l48-12v15.199218c-2.566406-.9375-5.273437-1.425781-8-1.441406-13.257812 0-24 10.746094-24 24s10.742188 24 24 24c13.253906 0 24-10.746094 24-24v-72c-.003906-2.460937-1.140625-4.789062-3.082031-6.304687zm-84.917969 102.304687c-4.417968 0-8-3.582031-8-8 0-4.417968 3.582032-8 8-8 4.417969 0 8 3.582032 8 8 0 4.417969-3.582031 8-8 8zm24-66.238281v-7.511719l48-12v7.511719zm40 50.238281c-4.417968 0-8-3.582031-8-8 0-4.417968 3.582032-8 8-8 4.417969 0 8 3.582032 8 8 0 4.417969-3.582031 8-8 8zm0 0" fill="#ed1c24"/><path d="m240.003906 224.003906-48 18.480469-56 21.519531-56-21.519531-48-18.480469 104-40zm0 0" fill="#acabb1"/></svg>