<svg height="512pt" viewBox="-60 0 512 512.00002" width="512pt" xmlns="http://www.w3.org/2000/svg"><path d="m313.441406 196.265625h29.820313c3.703125 0 6.636719 3.242187 6.140625 6.910156-3.375 25.007813-24.804688 44.292969-50.738282 44.292969v.003906c0 28.277344-22.925781 51.203125-51.199218 51.203125h-102.398438c-28.277344 0-51.203125-22.925781-51.203125-51.203125v-.003906c-25.933593 0-47.363281-19.285156-50.738281-44.292969-.492188-3.667969 2.4375-6.910156 6.140625-6.910156zm0 0" fill="#f9f6ed"/><path d="m343.261719 196.265625h-22.664063c3.703125 0 6.636719 3.242187 6.140625 6.910156-3.375 25.007813-24.804687 44.289063-50.738281 44.289063v.007812c0 28.277344-22.925781 51.199219-51.199219 51.199219h22.664063c28.277344 0 51.199218-22.921875 51.199218-51.199219v-.007812c25.933594 0 47.363282-19.28125 50.738282-44.289063.496094-3.667969-2.4375-6.910156-6.140625-6.910156zm0 0" fill="#e2e3d8"/><path d="m324.265625 341.335938c37.699219 0 68.261719 30.5625 68.261719 68.261718l.003906 96.222656c0 3.414063-2.769531 6.179688-6.183594 6.179688h-380.167968c-3.414063 0-6.179688-2.765625-6.179688-6.179688v-96.21875c0-37.703124 30.5625-68.265624 68.261719-68.265624zm0 0" fill="#f94a46"/><path d="m110.929688 375.46875h170.667968v136.53125h-170.667968zm0 0" fill="#e2e3d8"/><path d="m392.527344 409.597656c0-37.703125-30.5625-68.261718-68.261719-68.261718h-22.65625c37.695313.003906 68.253906 30.5625 68.253906 68.261718l.003907 96.222656c0 3.414063-2.769532 6.179688-6.183594 6.179688h22.664062c3.414063 0 6.183594-2.765625 6.183594-6.179688zm0 0" fill="#eb3b3b"/><path d="m145.066406 249.136719h102.398438v155.207031h-102.398438zm0 0" fill="#f2b38a"/><path d="m312.316406 143.359375c2.144532 2.851563 3.414063 6.398437 3.414063 10.242187v34.132813c0 9.429687-7.640625 17.070313-17.066407 17.070313h-17.066406l-170.667968-.003907h-17.066407c-9.425781 0-17.066406-7.640625-17.066406-17.066406v-34.132813c0-3.84375 1.269531-7.386718 3.410156-10.242187zm0 0" fill="#f2b38a"/><path d="m281.597656 57.175781v147.628907c0 47.125-38.203125 85.332031-85.332031 85.332031s-85.332031-38.203125-85.332031-85.332031v-147.628907zm0 0" fill="#f7cf9c"/><path d="m213.332031 214.140625h-34.132812c-4.269531 0-7.726563 3.460937-7.726563 7.726563 0 4.269531 3.457032 7.726562 7.726563 7.726562h34.132812c4.265625 0 7.726563-3.457031 7.726563-7.726562 0-4.265626-3.460938-7.726563-7.726563-7.726563zm0 0" fill="#f2b38a"/><path d="m162.132812 145.875c-4.269531 0-7.726562 3.457031-7.726562 7.726562v17.066407c0 4.265625 3.457031 7.726562 7.726562 7.726562 4.265626 0 7.726563-3.460937 7.726563-7.726562v-17.066407c0-4.269531-3.460937-7.726562-7.726563-7.726562zm0 0" fill="#666"/><path d="m230.398438 145.875c-4.269532 0-7.726563 3.457031-7.726563 7.726562v17.066407c0 4.265625 3.457031 7.726562 7.726563 7.726562 4.265624 0 7.726562-3.460937 7.726562-7.726562v-17.066407c0-4.269531-3.460938-7.726562-7.726562-7.726562zm0 0" fill="#666"/><path d="m149.648438 36.054688h93.230468v40.746093h-93.230468zm0 0" fill="#e2e3d8"/><path d="m326.199219 102.398438c3.703125 0 6.632812 3.242187 6.136719 6.910156-3.371094 25.011718-24.800782 44.292968-50.738282 44.292968-28.277344 0-51.199218-22.925781-51.199218-51.199218v-34.136719c0-9.425781-7.640626-17.066406-17.066407-17.066406-4.96875 0-9.445312 2.125-12.5625 5.519531-2.417969 2.625-6.589843 2.625-9.003906 0-3.121094-3.390625-7.597656-5.519531-12.566406-5.519531-9.425781 0-17.066407 7.640625-17.066407 17.066406v34.136719c0 28.277344-22.925781 51.199218-51.199218 51.199218-25.933594 0-47.367188-19.28125-50.738282-44.292968-.496093-3.667969 2.433594-6.910156 6.136719-6.910156h21.351563c3.414062 0 6.183594-2.765626 6.183594-6.179688v-45.019531c0-28.277344 22.921874-51.199219 51.199218-51.199219h102.398438c28.277344 0 51.199218 22.921875 51.199218 51.199219v45.019531c0 3.414062 2.769532 6.179688 6.183594 6.179688zm0 0" fill="#f9f6ed"/><path d="m326.199219 102.398438h-21.351563c-3.414062 0-6.183594-2.765626-6.183594-6.179688v-45.019531c0-28.277344-22.921874-51.199219-51.199218-51.199219h-22.664063c28.277344 0 51.199219 22.921875 51.199219 51.199219v45.019531c0 3.414062 2.769531 6.179688 6.183594 6.179688h21.351562c3.703125 0 6.632813 3.242187 6.136719 6.910156-2.863281 21.246094-18.765625 38.351562-39.386719 43.019531 3.640625.824219 7.425782 1.273437 11.3125 1.273437 25.933594 0 47.367188-19.285156 50.738282-44.292968.496093-3.667969-2.4375-6.910156-6.136719-6.910156zm0 0" fill="#e2e3d8"/><path d="m162.125 437.902344c-15.167969-5.363282-28.699219-14.199219-39.632812-25.554688v-36.882812h147.328124l.210938 36.886718c-10.933594 11.355469-24.464844 20.191407-39.636719 25.554688zm0 0" fill="#ff8e0d"/><path d="m196.265625 511.996094 34.128906.003906v-136.535156h-68.261719v76.804687c0 17.074219 12.539063 31.222657 28.914063 33.734375 3.007813.460938 5.21875 3.058594 5.21875 6.097656zm0 0" fill="#ffb70d"/><path d="m188.539062 375.46875v25.597656c0 4.269532 3.457032 7.726563 7.726563 7.726563 4.265625 0 7.726563-3.457031 7.726563-7.726563v-25.597656zm0 0" fill="#ff9e0d"/><g fill="#f9f6ed"><path d="m145.066406 324.265625-31.429687 15.71875c-1.707031.851563-2.925781 2.445313-3.296875 4.316406l-13.996094 69.972657c-1.007812 5.042968 4.226562 9.042968 8.828125 6.742187l91.09375-45.546875zm0 0"/><path d="m247.753906 324.265625 31.15625 15.714844c1.699219.855469 2.90625 2.441406 3.277344 4.304687l14 69.988282c1.007812 5.042968-4.226562 9.042968-8.828125 6.742187l-91.09375-45.546875zm0 0"/></g></svg>