<?xml version="1.0" encoding="UTF-8" standalone="no"?>
<!DOCTYPE svg PUBLIC "-//W3C//DTD SVG 1.1//EN" "http://www.w3.org/Graphics/SVG/1.1/DTD/svg11.dtd">
<svg version="1.1" xmlns="http://www.w3.org/2000/svg" xmlns:xlink="http://www.w3.org/1999/xlink" preserveAspectRatio="xMidYMid meet" viewBox="0 0 640 640" width="640" height="640"><defs><path d="M513.47 90.55C516.78 99.84 525.58 106.55 536 106.55C549.23 106.55 560 95.79 560 82.55C560 69.32 549.23 58.55 536 58.55C525.58 58.55 516.78 65.27 513.47 74.55C511.72 74.55 497.75 74.55 496 74.55C493.88 74.55 491.84 75.39 490.34 76.9C484.1 83.14 452.88 114.36 396.69 170.55C395.42 170.55 385.27 170.55 384 170.55C384 165.75 384 163.09 384 162.55C384 149.32 373.23 138.55 360 138.55C346.77 138.55 336 149.32 336 162.55C336 164.15 336 172.15 336 186.55C311.52 186.55 297.91 186.55 295.19 186.55C291.47 168.32 275.32 154.55 256 154.55C245.98 154.55 236.93 158.39 229.9 164.49C222.5 158.83 163.26 113.6 155.86 107.95C158.43 102.66 160 96.81 160 90.55C160 68.5 142.06 50.55 120 50.55C97.94 50.55 80 68.5 80 90.55C80 112.61 97.94 130.55 120 130.55C130.02 130.55 139.07 126.72 146.1 120.62C153.5 126.27 212.74 171.51 220.14 177.16C218.7 180.13 217.49 183.23 216.81 186.55C211.05 186.55 164.95 186.55 159.19 186.55C155.47 168.32 139.31 154.55 120 154.55C97.94 154.55 80 172.5 80 194.55C80 216.61 97.94 234.55 120 234.55C130.02 234.55 139.07 230.72 146.1 224.62C148.01 226.08 157.58 233.39 174.82 246.55C157.58 259.71 148.01 267.03 146.1 268.49C139.07 262.39 130.02 258.55 120 258.55C97.94 258.55 80 276.5 80 298.55C80 320.61 97.94 338.55 120 338.55C130.02 338.55 139.07 334.72 146.1 328.62C148.01 330.08 157.58 337.39 174.82 350.55C157.58 363.71 148.01 371.03 146.1 372.49C139.07 366.39 130.02 362.55 120 362.55C97.94 362.55 80 380.5 80 402.55C80 424.61 97.94 442.55 120 442.55C139.31 442.55 155.47 428.79 159.19 410.55C164.95 410.55 211.05 410.55 216.81 410.55C217.49 413.87 218.7 416.97 220.14 419.94C212.74 425.59 153.5 470.83 146.1 476.48C139.07 470.39 130.02 466.55 120 466.55C97.94 466.55 80 484.5 80 506.55C80 528.61 97.94 546.55 120 546.55C142.06 546.55 160 528.61 160 506.55C160 500.3 158.43 494.45 155.86 489.17C163.26 483.51 222.5 438.28 229.9 432.63C236.93 438.72 245.98 442.55 256 442.55C275.31 442.55 291.47 428.79 295.19 410.55C297.91 410.55 311.52 410.55 336 410.55C336 420.15 336 425.49 336 426.55C336 439.79 346.77 450.55 360 450.55C373.23 450.55 384 439.79 384 426.55C384.85 426.55 389.08 426.55 396.69 426.55C452.88 482.75 484.1 513.97 490.34 520.21C491.84 521.71 493.88 522.55 496 522.55C497.75 522.55 511.72 522.55 513.47 522.55C516.78 531.84 525.58 538.55 536 538.55C549.23 538.55 560 527.79 560 514.55C560 501.32 549.23 490.55 536 490.55C525.58 490.55 516.78 497.27 513.47 506.55C512.53 506.55 507.81 506.55 499.31 506.55C443.12 450.36 411.9 419.14 405.66 412.9C404.16 411.39 402.12 410.55 400 410.55C398.93 410.55 393.6 410.55 384 410.55C384 408.95 384 400.95 384 386.55C406.01 386.55 418.24 386.55 420.69 386.55C457.68 423.55 478.23 444.1 482.34 448.21C483.84 449.71 485.88 450.55 488 450.55C490.55 450.55 510.92 450.55 513.47 450.55C516.78 459.84 525.58 466.55 536 466.55C549.23 466.55 560 455.79 560 442.55C560 429.32 549.23 418.55 536 418.55C525.58 418.55 516.78 425.27 513.47 434.55C511.99 434.55 504.61 434.55 491.31 434.55C454.32 397.56 433.77 377.01 429.66 372.9C428.16 371.39 426.12 370.55 424 370.55C421.33 370.55 408 370.55 384 370.55C384 368.95 384 360.95 384 346.55C425.21 346.55 448.11 346.55 452.69 346.55C470.48 364.35 480.37 374.23 482.34 376.21C483.84 377.71 485.88 378.55 488 378.55C490.55 378.55 510.92 378.55 513.47 378.55C516.78 387.84 525.58 394.55 536 394.55C549.23 394.55 560 383.79 560 370.55C560 357.32 549.23 346.55 536 346.55C525.58 346.55 516.78 353.27 513.47 362.55C511.99 362.55 504.61 362.55 491.31 362.55C473.52 344.76 463.63 334.87 461.66 332.9C460.16 331.39 458.12 330.55 456 330.55C451.2 330.55 427.2 330.55 384 330.55C384 328.15 384 308.95 384 306.55C461.68 306.55 504.84 306.55 513.47 306.55C516.78 315.84 525.58 322.55 536 322.55C549.23 322.55 560 311.79 560 298.55C560 285.32 549.23 274.55 536 274.55C525.58 274.55 516.78 281.27 513.47 290.55C504.84 290.55 461.68 290.55 384 290.55C384 288.15 384 268.95 384 266.55C427.2 266.55 451.2 266.55 456 266.55C458.12 266.55 460.16 265.71 461.66 264.21C463.63 262.23 473.52 252.35 491.31 234.55C504.61 234.55 511.99 234.55 513.47 234.55C516.78 243.84 525.58 250.55 536 250.55C549.23 250.55 560 239.79 560 226.55C560 213.32 549.23 202.55 536 202.55C525.58 202.55 516.78 209.27 513.47 218.55C510.92 218.55 490.55 218.55 488 218.55C485.88 218.55 483.84 219.39 482.34 220.9C480.37 222.87 470.48 232.76 452.69 250.55C448.11 250.55 425.21 250.55 384 250.55C384 236.15 384 228.15 384 226.55C408 226.55 421.33 226.55 424 226.55C426.12 226.55 428.16 225.71 429.66 224.21C433.77 220.1 454.32 199.55 491.31 162.55C504.61 162.55 511.99 162.55 513.47 162.55C516.78 171.84 525.58 178.55 536 178.55C549.23 178.55 560 167.79 560 154.55C560 141.32 549.23 130.55 536 130.55C525.58 130.55 516.78 137.27 513.47 146.55C510.92 146.55 490.55 146.55 488 146.55C485.88 146.55 483.84 147.39 482.34 148.9C478.23 153.01 457.68 173.56 420.69 210.55C418.24 210.55 406.01 210.55 384 210.55C384 196.15 384 188.15 384 186.55C392.53 186.55 397.87 186.55 400 186.55C402.12 186.55 404.16 185.71 405.66 184.21C411.9 177.97 443.12 146.75 499.31 90.55C507.81 90.55 512.53 90.55 513.47 90.55ZM536 74.55C540.41 74.55 544 78.14 544 82.55C544 86.97 540.41 90.55 536 90.55C531.59 90.55 528 86.97 528 82.55C528 78.14 531.59 74.55 536 74.55ZM536 506.55C540.41 506.55 544 510.14 544 514.55C544 518.97 540.41 522.55 536 522.55C531.59 522.55 528 518.97 528 514.55C528 510.14 531.59 506.55 536 506.55ZM536 434.55C540.41 434.55 544 438.14 544 442.55C544 446.97 540.41 450.55 536 450.55C531.59 450.55 528 446.97 528 442.55C528 438.14 531.59 434.55 536 434.55ZM536 362.55C540.41 362.55 544 366.14 544 370.55C544 374.97 540.41 378.55 536 378.55C531.59 378.55 528 374.97 528 370.55C528 366.14 531.59 362.55 536 362.55ZM536 290.55C540.41 290.55 544 294.14 544 298.55C544 302.97 540.41 306.55 536 306.55C531.59 306.55 528 302.97 528 298.55C528 294.14 531.59 290.55 536 290.55ZM536 218.55C540.41 218.55 544 222.14 544 226.55C544 230.97 540.41 234.55 536 234.55C531.59 234.55 528 230.97 528 226.55C528 222.14 531.59 218.55 536 218.55ZM536 146.55C540.41 146.55 544 150.14 544 154.55C544 158.97 540.41 162.55 536 162.55C531.59 162.55 528 158.97 528 154.55C528 150.14 531.59 146.55 536 146.55ZM256 258.55C245.98 258.55 236.93 262.39 229.9 268.49C227.99 267.03 218.42 259.71 201.18 246.55C218.42 233.39 227.99 226.08 229.9 224.62C236.93 230.72 245.98 234.55 256 234.55C275.31 234.55 291.47 220.79 295.19 202.55C300.63 202.55 314.24 202.55 336 202.55C336 220.15 336 281.75 336 290.55C311.52 290.55 297.91 290.55 295.19 290.55C291.47 272.32 275.32 258.55 256 258.55ZM232 298.55C232 285.32 242.77 274.55 256 274.55C269.23 274.55 280 285.32 280 298.55C280 311.79 269.23 322.55 256 322.55C242.77 322.55 232 311.79 232 298.55ZM256 170.55C269.23 170.55 280 181.32 280 194.55C280 207.79 269.23 218.55 256 218.55C242.77 218.55 232 207.79 232 194.55C232 181.32 242.77 170.55 256 170.55ZM120 114.55C106.77 114.55 96 103.79 96 90.55C96 77.32 106.77 66.55 120 66.55C133.23 66.55 144 77.32 144 90.55C144 103.79 133.23 114.55 120 114.55ZM120 218.55C106.77 218.55 96 207.79 96 194.55C96 181.32 106.77 170.55 120 170.55C133.23 170.55 144 181.32 144 194.55C144 207.79 133.23 218.55 120 218.55ZM220.14 211.94C218 213.57 207.29 221.76 188 236.49C170.86 223.39 160.14 215.21 155.86 211.94C157.3 208.97 158.51 205.87 159.19 202.55C164.95 202.55 211.05 202.55 216.81 202.55C217.49 205.87 218.7 208.97 220.14 211.94ZM155.86 281.17C158 279.53 168.71 271.35 188 256.63C205.14 269.72 215.86 277.9 220.14 281.17C218.7 284.14 217.49 287.23 216.81 290.55C211.05 290.55 164.95 290.55 159.19 290.55C158.51 287.23 157.3 284.14 155.86 281.17ZM120 322.55C106.77 322.55 96 311.79 96 298.55C96 285.32 106.77 274.55 120 274.55C133.23 274.55 144 285.32 144 298.55C144 311.79 133.23 322.55 120 322.55ZM220.14 315.94C218 317.57 207.29 325.76 188 340.49C170.86 327.39 160.14 319.21 155.86 315.94C157.3 312.97 158.51 309.87 159.19 306.55C164.95 306.55 211.05 306.55 216.81 306.55C217.49 309.87 218.7 312.97 220.14 315.94ZM220.14 385.17C218.7 388.14 217.49 391.23 216.81 394.55C205.28 394.55 164.95 394.55 159.19 394.55C158.51 391.23 157.3 388.14 155.86 385.17C158 383.53 168.71 375.35 188 360.63C207.29 375.35 218 383.53 220.14 385.17ZM120 426.55C106.77 426.55 96 415.79 96 402.55C96 389.32 106.77 378.55 120 378.55C133.23 378.55 144 389.32 144 402.55C144 415.79 133.23 426.55 120 426.55ZM120 530.55C106.77 530.55 96 519.79 96 506.55C96 493.32 106.77 482.55 120 482.55C133.23 482.55 144 493.32 144 506.55C144 519.79 133.23 530.55 120 530.55ZM256 426.55C242.77 426.55 232 415.79 232 402.55C232 389.32 242.77 378.55 256 378.55C269.23 378.55 280 389.32 280 402.55C280 415.79 269.23 426.55 256 426.55ZM201.18 350.55C218.42 337.39 227.99 330.08 229.9 328.62C236.93 334.72 245.98 338.55 256 338.55C275.31 338.55 291.47 324.79 295.19 306.55C297.91 306.55 311.52 306.55 336 306.55C336 315.35 336 385.75 336 394.55C314.24 394.55 300.63 394.55 295.19 394.55C291.47 376.32 275.32 362.55 256 362.55C245.98 362.55 236.93 366.39 229.9 372.49C227.99 371.03 218.42 363.71 201.18 350.55ZM352 162.55C352 158.14 355.59 154.55 360 154.55C364.41 154.55 368 158.14 368 162.55C368 215.35 368 373.75 368 426.55C368 430.97 364.41 434.55 360 434.55C355.59 434.55 352 430.97 352 426.55C352 400.15 352 188.95 352 162.55Z" id="a1dxtYQJNa"></path><path d="M513.47 90.55C516.78 99.84 525.58 106.55 536 106.55C549.23 106.55 560 95.79 560 82.55C560 69.32 549.23 58.55 536 58.55C525.58 58.55 516.78 65.27 513.47 74.55C511.72 74.55 497.75 74.55 496 74.55C493.88 74.55 491.84 75.39 490.34 76.9C484.1 83.14 452.88 114.36 396.69 170.55C395.42 170.55 385.27 170.55 384 170.55C384 165.75 384 163.09 384 162.55C384 149.32 373.23 138.55 360 138.55C346.77 138.55 336 149.32 336 162.55C336 164.15 336 172.15 336 186.55C311.52 186.55 297.91 186.55 295.19 186.55C291.47 168.32 275.32 154.55 256 154.55C245.98 154.55 236.93 158.39 229.9 164.49C222.5 158.83 163.26 113.6 155.86 107.95C158.43 102.66 160 96.81 160 90.55C160 68.5 142.06 50.55 120 50.55C97.94 50.55 80 68.5 80 90.55C80 112.61 97.94 130.55 120 130.55C130.02 130.55 139.07 126.72 146.1 120.62C153.5 126.27 212.74 171.51 220.14 177.16C218.7 180.13 217.49 183.23 216.81 186.55C211.05 186.55 164.95 186.55 159.19 186.55C155.47 168.32 139.31 154.55 120 154.55C97.94 154.55 80 172.5 80 194.55C80 216.61 97.94 234.55 120 234.55C130.02 234.55 139.07 230.72 146.1 224.62C148.01 226.08 157.58 233.39 174.82 246.55C157.58 259.71 148.01 267.03 146.1 268.49C139.07 262.39 130.02 258.55 120 258.55C97.94 258.55 80 276.5 80 298.55C80 320.61 97.94 338.55 120 338.55C130.02 338.55 139.07 334.72 146.1 328.62C148.01 330.08 157.58 337.39 174.82 350.55C157.58 363.71 148.01 371.03 146.1 372.49C139.07 366.39 130.02 362.55 120 362.55C97.94 362.55 80 380.5 80 402.55C80 424.61 97.94 442.55 120 442.55C139.31 442.55 155.47 428.79 159.19 410.55C164.95 410.55 211.05 410.55 216.81 410.55C217.49 413.87 218.7 416.97 220.14 419.94C212.74 425.59 153.5 470.83 146.1 476.48C139.07 470.39 130.02 466.55 120 466.55C97.94 466.55 80 484.5 80 506.55C80 528.61 97.94 546.55 120 546.55C142.06 546.55 160 528.61 160 506.55C160 500.3 158.43 494.45 155.86 489.17C163.26 483.51 222.5 438.28 229.9 432.63C236.93 438.72 245.98 442.55 256 442.55C275.31 442.55 291.47 428.79 295.19 410.55C297.91 410.55 311.52 410.55 336 410.55C336 420.15 336 425.49 336 426.55C336 439.79 346.77 450.55 360 450.55C373.23 450.55 384 439.79 384 426.55C384.85 426.55 389.08 426.55 396.69 426.55C452.88 482.75 484.1 513.97 490.34 520.21C491.84 521.71 493.88 522.55 496 522.55C497.75 522.55 511.72 522.55 513.47 522.55C516.78 531.84 525.58 538.55 536 538.55C549.23 538.55 560 527.79 560 514.55C560 501.32 549.23 490.55 536 490.55C525.58 490.55 516.78 497.27 513.47 506.55C512.53 506.55 507.81 506.55 499.31 506.55C443.12 450.36 411.9 419.14 405.66 412.9C404.16 411.39 402.12 410.55 400 410.55C398.93 410.55 393.6 410.55 384 410.55C384 408.95 384 400.95 384 386.55C406.01 386.55 418.24 386.55 420.69 386.55C457.68 423.55 478.23 444.1 482.34 448.21C483.84 449.71 485.88 450.55 488 450.55C490.55 450.55 510.92 450.55 513.47 450.55C516.78 459.84 525.58 466.55 536 466.55C549.23 466.55 560 455.79 560 442.55C560 429.32 549.23 418.55 536 418.55C525.58 418.55 516.78 425.27 513.47 434.55C511.99 434.55 504.61 434.55 491.31 434.55C454.32 397.56 433.77 377.01 429.66 372.9C428.16 371.39 426.12 370.55 424 370.55C421.33 370.55 408 370.55 384 370.55C384 368.95 384 360.95 384 346.55C425.21 346.55 448.11 346.55 452.69 346.55C470.48 364.35 480.37 374.23 482.34 376.21C483.84 377.71 485.88 378.55 488 378.55C490.55 378.55 510.92 378.55 513.47 378.55C516.78 387.84 525.58 394.55 536 394.55C549.23 394.55 560 383.79 560 370.55C560 357.32 549.23 346.55 536 346.55C525.58 346.55 516.78 353.27 513.47 362.55C511.99 362.55 504.61 362.55 491.31 362.55C473.52 344.76 463.63 334.87 461.66 332.9C460.16 331.39 458.12 330.55 456 330.55C451.2 330.55 427.2 330.55 384 330.55C384 328.15 384 308.95 384 306.55C461.68 306.55 504.84 306.55 513.47 306.55C516.78 315.84 525.58 322.55 536 322.55C549.23 322.55 560 311.79 560 298.55C560 285.32 549.23 274.55 536 274.55C525.58 274.55 516.78 281.27 513.47 290.55C504.84 290.55 461.68 290.55 384 290.55C384 288.15 384 268.95 384 266.55C427.2 266.55 451.2 266.55 456 266.55C458.12 266.55 460.16 265.71 461.66 264.21C463.63 262.23 473.52 252.35 491.31 234.55C504.61 234.55 511.99 234.55 513.47 234.55C516.78 243.84 525.58 250.55 536 250.55C549.23 250.55 560 239.79 560 226.55C560 213.32 549.23 202.55 536 202.55C525.58 202.55 516.78 209.27 513.47 218.55C510.92 218.55 490.55 218.55 488 218.55C485.88 218.55 483.84 219.39 482.34 220.9C480.37 222.87 470.48 232.76 452.69 250.55C448.11 250.55 425.21 250.55 384 250.55C384 236.15 384 228.15 384 226.55C408 226.55 421.33 226.55 424 226.55C426.12 226.55 428.16 225.71 429.66 224.21C433.77 220.1 454.32 199.55 491.31 162.55C504.61 162.55 511.99 162.55 513.47 162.55C516.78 171.84 525.58 178.55 536 178.55C549.23 178.55 560 167.79 560 154.55C560 141.32 549.23 130.55 536 130.55C525.58 130.55 516.78 137.27 513.47 146.55C510.92 146.55 490.55 146.55 488 146.55C485.88 146.55 483.84 147.39 482.34 148.9C478.23 153.01 457.68 173.56 420.69 210.55C418.24 210.55 406.01 210.55 384 210.55C384 196.15 384 188.15 384 186.55C392.53 186.55 397.87 186.55 400 186.55C402.12 186.55 404.16 185.71 405.66 184.21C411.9 177.97 443.12 146.75 499.31 90.55C507.81 90.55 512.53 90.55 513.47 90.55ZM536 74.55C540.41 74.55 544 78.14 544 82.55C544 86.97 540.41 90.55 536 90.55C531.59 90.55 528 86.97 528 82.55C528 78.14 531.59 74.55 536 74.55ZM536 506.55C540.41 506.55 544 510.14 544 514.55C544 518.97 540.41 522.55 536 522.55C531.59 522.55 528 518.97 528 514.55C528 510.14 531.59 506.55 536 506.55ZM536 434.55C540.41 434.55 544 438.14 544 442.55C544 446.97 540.41 450.55 536 450.55C531.59 450.55 528 446.97 528 442.55C528 438.14 531.59 434.55 536 434.55ZM536 362.55C540.41 362.55 544 366.14 544 370.55C544 374.97 540.41 378.55 536 378.55C531.59 378.55 528 374.97 528 370.55C528 366.14 531.59 362.55 536 362.55ZM536 290.55C540.41 290.55 544 294.14 544 298.55C544 302.97 540.41 306.55 536 306.55C531.59 306.55 528 302.97 528 298.55C528 294.14 531.59 290.55 536 290.55ZM536 218.55C540.41 218.55 544 222.14 544 226.55C544 230.97 540.41 234.55 536 234.55C531.59 234.55 528 230.97 528 226.55C528 222.14 531.59 218.55 536 218.55ZM536 146.55C540.41 146.55 544 150.14 544 154.55C544 158.97 540.41 162.55 536 162.55C531.59 162.55 528 158.97 528 154.55C528 150.14 531.59 146.55 536 146.55ZM256 258.55C245.98 258.55 236.93 262.39 229.9 268.49C227.99 267.03 218.42 259.71 201.18 246.55C218.42 233.39 227.99 226.08 229.9 224.62C236.93 230.72 245.98 234.55 256 234.55C275.31 234.55 291.47 220.79 295.19 202.55C300.63 202.55 314.24 202.55 336 202.55C336 220.15 336 281.75 336 290.55C311.52 290.55 297.91 290.55 295.19 290.55C291.47 272.32 275.32 258.55 256 258.55ZM232 298.55C232 285.32 242.77 274.55 256 274.55C269.23 274.55 280 285.32 280 298.55C280 311.79 269.23 322.55 256 322.55C242.77 322.55 232 311.79 232 298.55ZM256 170.55C269.23 170.55 280 181.32 280 194.55C280 207.79 269.23 218.55 256 218.55C242.77 218.55 232 207.79 232 194.55C232 181.32 242.77 170.55 256 170.55ZM120 114.55C106.77 114.55 96 103.79 96 90.55C96 77.32 106.77 66.55 120 66.55C133.23 66.55 144 77.32 144 90.55C144 103.79 133.23 114.55 120 114.55ZM120 218.55C106.77 218.55 96 207.79 96 194.55C96 181.32 106.77 170.55 120 170.55C133.23 170.55 144 181.32 144 194.55C144 207.79 133.23 218.55 120 218.55ZM220.14 211.94C218 213.57 207.29 221.76 188 236.49C170.86 223.39 160.14 215.21 155.86 211.94C157.3 208.97 158.51 205.87 159.19 202.55C164.95 202.55 211.05 202.55 216.81 202.55C217.49 205.87 218.7 208.97 220.14 211.94ZM155.86 281.17C158 279.53 168.71 271.35 188 256.63C205.14 269.72 215.86 277.9 220.14 281.17C218.7 284.14 217.49 287.23 216.81 290.55C211.05 290.55 164.95 290.55 159.19 290.55C158.51 287.23 157.3 284.14 155.86 281.17ZM120 322.55C106.77 322.55 96 311.79 96 298.55C96 285.32 106.77 274.55 120 274.55C133.23 274.55 144 285.32 144 298.55C144 311.79 133.23 322.55 120 322.55ZM220.14 315.94C218 317.57 207.29 325.76 188 340.49C170.86 327.39 160.14 319.21 155.86 315.94C157.3 312.97 158.51 309.87 159.19 306.55C164.95 306.55 211.05 306.55 216.81 306.55C217.49 309.87 218.7 312.97 220.14 315.94ZM220.14 385.17C218.7 388.14 217.49 391.23 216.81 394.55C205.28 394.55 164.95 394.55 159.19 394.55C158.51 391.23 157.3 388.14 155.86 385.17C158 383.53 168.71 375.35 188 360.63C207.29 375.35 218 383.53 220.14 385.17ZM120 426.55C106.77 426.55 96 415.79 96 402.55C96 389.32 106.77 378.55 120 378.55C133.23 378.55 144 389.32 144 402.55C144 415.79 133.23 426.55 120 426.55ZM120 530.55C106.77 530.55 96 519.79 96 506.55C96 493.32 106.77 482.55 120 482.55C133.23 482.55 144 493.32 144 506.55C144 519.79 133.23 530.55 120 530.55ZM256 426.55C242.77 426.55 232 415.79 232 402.55C232 389.32 242.77 378.55 256 378.55C269.23 378.55 280 389.32 280 402.55C280 415.79 269.23 426.55 256 426.55ZM201.18 350.55C218.42 337.39 227.99 330.08 229.9 328.62C236.93 334.72 245.98 338.55 256 338.55C275.31 338.55 291.47 324.79 295.19 306.55C297.91 306.55 311.52 306.55 336 306.55C336 315.35 336 385.75 336 394.55C314.24 394.55 300.63 394.55 295.19 394.55C291.47 376.32 275.32 362.55 256 362.55C245.98 362.55 236.93 366.39 229.9 372.49C227.99 371.03 218.42 363.71 201.18 350.55ZM352 162.55C352 158.14 355.59 154.55 360 154.55C364.41 154.55 368 158.14 368 162.55C368 215.35 368 373.75 368 426.55C368 430.97 364.41 434.55 360 434.55C355.59 434.55 352 430.97 352 426.55C352 400.15 352 188.95 352 162.55Z" id="b1RxmwBy2"></path><path d="M513.47 90.55C516.78 99.84 525.58 106.55 536 106.55C549.23 106.55 560 95.79 560 82.55C560 69.32 549.23 58.55 536 58.55C525.58 58.55 516.78 65.27 513.47 74.55C511.72 74.55 497.75 74.55 496 74.55C493.88 74.55 491.84 75.39 490.34 76.9C484.1 83.14 452.88 114.36 396.69 170.55C395.42 170.55 385.27 170.55 384 170.55C384 165.75 384 163.09 384 162.55C384 149.32 373.23 138.55 360 138.55C346.77 138.55 336 149.32 336 162.55C336 164.15 336 172.15 336 186.55C311.52 186.55 297.91 186.55 295.19 186.55C291.47 168.32 275.32 154.55 256 154.55C245.98 154.55 236.93 158.39 229.9 164.49C222.5 158.83 163.26 113.6 155.86 107.95C158.43 102.66 160 96.81 160 90.55C160 68.5 142.06 50.55 120 50.55C97.94 50.55 80 68.5 80 90.55C80 112.61 97.94 130.55 120 130.55C130.02 130.55 139.07 126.72 146.1 120.62C153.5 126.27 212.74 171.51 220.14 177.16C218.7 180.13 217.49 183.23 216.81 186.55C211.05 186.55 164.95 186.55 159.19 186.55C155.47 168.32 139.31 154.55 120 154.55C97.94 154.55 80 172.5 80 194.55C80 216.61 97.94 234.55 120 234.55C130.02 234.55 139.07 230.72 146.1 224.62C148.01 226.08 157.58 233.39 174.82 246.55C157.58 259.71 148.01 267.03 146.1 268.49C139.07 262.39 130.02 258.55 120 258.55C97.94 258.55 80 276.5 80 298.55C80 320.61 97.94 338.55 120 338.55C130.02 338.55 139.07 334.72 146.1 328.62C148.01 330.08 157.58 337.39 174.82 350.55C157.58 363.71 148.01 371.03 146.1 372.49C139.07 366.39 130.02 362.55 120 362.55C97.94 362.55 80 380.5 80 402.55C80 424.61 97.94 442.55 120 442.55C139.31 442.55 155.47 428.79 159.19 410.55C164.95 410.55 211.05 410.55 216.81 410.55C217.49 413.87 218.7 416.97 220.14 419.94C212.74 425.59 153.5 470.83 146.1 476.48C139.07 470.39 130.02 466.55 120 466.55C97.94 466.55 80 484.5 80 506.55C80 528.61 97.94 546.55 120 546.55C142.06 546.55 160 528.61 160 506.55C160 500.3 158.43 494.45 155.86 489.17C163.26 483.51 222.5 438.28 229.9 432.63C236.93 438.72 245.98 442.55 256 442.55C275.31 442.55 291.47 428.79 295.19 410.55C297.91 410.55 311.52 410.55 336 410.55C336 420.15 336 425.49 336 426.55C336 439.79 346.77 450.55 360 450.55C373.23 450.55 384 439.79 384 426.55C384.85 426.55 389.08 426.55 396.69 426.55C452.88 482.75 484.1 513.97 490.34 520.21C491.84 521.71 493.88 522.55 496 522.55C497.75 522.55 511.72 522.55 513.47 522.55C516.78 531.84 525.58 538.55 536 538.55C549.23 538.55 560 527.79 560 514.55C560 501.32 549.23 490.55 536 490.55C525.58 490.55 516.78 497.27 513.47 506.55C512.53 506.55 507.81 506.55 499.31 506.55C443.12 450.36 411.9 419.14 405.66 412.9C404.16 411.39 402.12 410.55 400 410.55C398.93 410.55 393.6 410.55 384 410.55C384 408.95 384 400.95 384 386.55C406.01 386.55 418.24 386.55 420.69 386.55C457.68 423.55 478.23 444.1 482.34 448.21C483.84 449.71 485.88 450.55 488 450.55C490.55 450.55 510.92 450.55 513.47 450.55C516.78 459.84 525.58 466.55 536 466.55C549.23 466.55 560 455.79 560 442.55C560 429.32 549.23 418.55 536 418.55C525.58 418.55 516.78 425.27 513.47 434.55C511.99 434.55 504.61 434.55 491.31 434.55C454.32 397.56 433.77 377.01 429.66 372.9C428.16 371.39 426.12 370.55 424 370.55C421.33 370.55 408 370.55 384 370.55C384 368.95 384 360.95 384 346.55C425.21 346.55 448.11 346.55 452.69 346.55C470.48 364.35 480.37 374.23 482.34 376.21C483.84 377.71 485.88 378.55 488 378.55C490.55 378.55 510.92 378.55 513.47 378.55C516.78 387.84 525.58 394.55 536 394.55C549.23 394.55 560 383.79 560 370.55C560 357.32 549.23 346.55 536 346.55C525.58 346.55 516.78 353.27 513.47 362.55C511.99 362.55 504.61 362.55 491.31 362.55C473.52 344.76 463.63 334.87 461.66 332.9C460.16 331.39 458.12 330.55 456 330.55C451.2 330.55 427.2 330.55 384 330.55C384 328.15 384 308.95 384 306.55C461.68 306.55 504.84 306.55 513.47 306.55C516.78 315.84 525.58 322.55 536 322.55C549.23 322.55 560 311.79 560 298.55C560 285.32 549.23 274.55 536 274.55C525.58 274.55 516.78 281.27 513.47 290.55C504.84 290.55 461.68 290.55 384 290.55C384 288.15 384 268.95 384 266.55C427.2 266.55 451.2 266.55 456 266.55C458.12 266.55 460.16 265.71 461.66 264.21C463.63 262.23 473.52 252.35 491.31 234.55C504.61 234.55 511.99 234.55 513.47 234.55C516.78 243.84 525.58 250.55 536 250.55C549.23 250.55 560 239.79 560 226.55C560 213.32 549.23 202.55 536 202.55C525.58 202.55 516.78 209.27 513.47 218.55C510.92 218.55 490.55 218.55 488 218.55C485.88 218.55 483.84 219.39 482.34 220.9C480.37 222.87 470.48 232.76 452.69 250.55C448.11 250.55 425.21 250.55 384 250.55C384 236.15 384 228.15 384 226.55C408 226.55 421.33 226.55 424 226.55C426.12 226.55 428.16 225.71 429.66 224.21C433.77 220.1 454.32 199.55 491.31 162.55C504.61 162.55 511.99 162.55 513.47 162.55C516.78 171.84 525.58 178.55 536 178.55C549.23 178.55 560 167.79 560 154.55C560 141.32 549.23 130.55 536 130.55C525.58 130.55 516.78 137.27 513.47 146.55C510.92 146.55 490.55 146.55 488 146.55C485.88 146.55 483.84 147.39 482.34 148.9C478.23 153.01 457.68 173.56 420.69 210.55C418.24 210.55 406.01 210.55 384 210.55C384 196.15 384 188.15 384 186.55C392.53 186.55 397.87 186.55 400 186.55C402.12 186.55 404.16 185.71 405.66 184.21C411.9 177.97 443.12 146.75 499.31 90.55C507.81 90.55 512.53 90.55 513.47 90.55ZM536 74.55C540.41 74.55 544 78.14 544 82.55C544 86.97 540.41 90.55 536 90.55C531.59 90.55 528 86.97 528 82.55C528 78.14 531.59 74.55 536 74.55ZM536 506.55C540.41 506.55 544 510.14 544 514.55C544 518.97 540.41 522.55 536 522.55C531.59 522.55 528 518.97 528 514.55C528 510.14 531.59 506.55 536 506.55ZM536 434.55C540.41 434.55 544 438.14 544 442.55C544 446.97 540.41 450.55 536 450.55C531.59 450.55 528 446.97 528 442.55C528 438.14 531.59 434.55 536 434.55ZM536 362.55C540.41 362.55 544 366.14 544 370.55C544 374.97 540.41 378.55 536 378.55C531.59 378.55 528 374.97 528 370.55C528 366.14 531.59 362.55 536 362.55ZM536 290.55C540.41 290.55 544 294.14 544 298.55C544 302.97 540.41 306.55 536 306.55C531.59 306.55 528 302.97 528 298.55C528 294.14 531.59 290.55 536 290.55ZM536 218.55C540.41 218.55 544 222.14 544 226.55C544 230.97 540.41 234.55 536 234.55C531.59 234.55 528 230.97 528 226.55C528 222.14 531.59 218.55 536 218.55ZM536 146.55C540.41 146.55 544 150.14 544 154.55C544 158.97 540.41 162.55 536 162.55C531.59 162.55 528 158.97 528 154.55C528 150.14 531.59 146.55 536 146.55ZM256 258.55C245.98 258.55 236.93 262.39 229.9 268.49C227.99 267.03 218.42 259.71 201.18 246.55C218.42 233.39 227.99 226.08 229.9 224.62C236.93 230.72 245.98 234.55 256 234.55C275.31 234.55 291.47 220.79 295.19 202.55C300.63 202.55 314.24 202.55 336 202.55C336 220.15 336 281.75 336 290.55C311.52 290.55 297.91 290.55 295.19 290.55C291.47 272.32 275.32 258.55 256 258.55ZM232 298.55C232 285.32 242.77 274.55 256 274.55C269.23 274.55 280 285.32 280 298.55C280 311.79 269.23 322.55 256 322.55C242.77 322.55 232 311.79 232 298.55ZM256 170.55C269.23 170.55 280 181.32 280 194.55C280 207.79 269.23 218.55 256 218.55C242.77 218.55 232 207.79 232 194.55C232 181.32 242.77 170.55 256 170.55ZM120 114.55C106.77 114.55 96 103.79 96 90.55C96 77.32 106.77 66.55 120 66.55C133.23 66.55 144 77.32 144 90.55C144 103.79 133.23 114.55 120 114.55ZM120 218.55C106.77 218.55 96 207.79 96 194.55C96 181.32 106.77 170.55 120 170.55C133.23 170.55 144 181.32 144 194.55C144 207.79 133.23 218.55 120 218.55ZM220.14 211.94C218 213.57 207.29 221.76 188 236.49C170.86 223.39 160.14 215.21 155.86 211.94C157.3 208.97 158.51 205.87 159.19 202.55C164.95 202.55 211.05 202.55 216.81 202.55C217.49 205.87 218.7 208.97 220.14 211.94ZM155.86 281.17C158 279.53 168.71 271.35 188 256.63C205.14 269.72 215.86 277.9 220.14 281.17C218.7 284.14 217.49 287.23 216.81 290.55C211.05 290.55 164.95 290.55 159.19 290.55C158.51 287.23 157.3 284.14 155.86 281.17ZM120 322.55C106.77 322.55 96 311.79 96 298.55C96 285.32 106.77 274.55 120 274.55C133.23 274.55 144 285.32 144 298.55C144 311.79 133.23 322.55 120 322.55ZM220.14 315.94C218 317.57 207.29 325.76 188 340.49C170.86 327.39 160.14 319.21 155.86 315.94C157.3 312.97 158.51 309.87 159.19 306.55C164.95 306.55 211.05 306.55 216.81 306.55C217.49 309.87 218.7 312.97 220.14 315.94ZM220.14 385.17C218.7 388.14 217.49 391.23 216.81 394.55C205.28 394.55 164.95 394.55 159.19 394.55C158.51 391.23 157.3 388.14 155.86 385.17C158 383.53 168.71 375.35 188 360.63C207.29 375.35 218 383.53 220.14 385.17ZM120 426.55C106.77 426.55 96 415.79 96 402.55C96 389.32 106.77 378.55 120 378.55C133.23 378.55 144 389.32 144 402.55C144 415.79 133.23 426.55 120 426.55ZM120 530.55C106.77 530.55 96 519.79 96 506.55C96 493.32 106.77 482.55 120 482.55C133.23 482.55 144 493.32 144 506.55C144 519.79 133.23 530.55 120 530.55ZM256 426.55C242.77 426.55 232 415.79 232 402.55C232 389.32 242.77 378.55 256 378.55C269.23 378.55 280 389.32 280 402.55C280 415.79 269.23 426.55 256 426.55ZM201.18 350.55C218.42 337.39 227.99 330.08 229.9 328.62C236.93 334.72 245.98 338.55 256 338.55C275.31 338.55 291.47 324.79 295.19 306.55C297.91 306.55 311.52 306.55 336 306.55C336 315.35 336 385.75 336 394.55C314.24 394.55 300.63 394.55 295.19 394.55C291.47 376.32 275.32 362.55 256 362.55C245.98 362.55 236.93 366.39 229.9 372.49C227.99 371.03 218.42 363.71 201.18 350.55ZM352 162.55C352 158.14 355.59 154.55 360 154.55C364.41 154.55 368 158.14 368 162.55C368 215.35 368 373.75 368 426.55C368 430.97 364.41 434.55 360 434.55C355.59 434.55 352 430.97 352 426.55C352 400.15 352 188.95 352 162.55Z" id="anUHarPVU"></path><path d="M513.47 90.55C516.78 99.84 525.58 106.55 536 106.55C549.23 106.55 560 95.79 560 82.55C560 69.32 549.23 58.55 536 58.55C525.58 58.55 516.78 65.27 513.47 74.55C511.72 74.55 497.75 74.55 496 74.55C493.88 74.55 491.84 75.39 490.34 76.9C484.1 83.14 452.88 114.36 396.69 170.55C395.42 170.55 385.27 170.55 384 170.55C384 165.75 384 163.09 384 162.55C384 149.32 373.23 138.55 360 138.55C346.77 138.55 336 149.32 336 162.55C336 164.15 336 172.15 336 186.55C311.52 186.55 297.91 186.55 295.19 186.55C291.47 168.32 275.32 154.55 256 154.55C245.98 154.55 236.93 158.39 229.9 164.49C222.5 158.83 163.26 113.6 155.86 107.95C158.43 102.66 160 96.81 160 90.55C160 68.5 142.06 50.55 120 50.55C97.94 50.55 80 68.5 80 90.55C80 112.61 97.94 130.55 120 130.55C130.02 130.55 139.07 126.72 146.1 120.62C153.5 126.27 212.74 171.51 220.14 177.16C218.7 180.13 217.49 183.23 216.81 186.55C211.05 186.55 164.95 186.55 159.19 186.55C155.47 168.32 139.31 154.55 120 154.55C97.94 154.55 80 172.5 80 194.55C80 216.61 97.94 234.55 120 234.55C130.02 234.55 139.07 230.72 146.1 224.62C148.01 226.08 157.58 233.39 174.82 246.55C157.58 259.71 148.01 267.03 146.1 268.49C139.07 262.39 130.02 258.55 120 258.55C97.94 258.55 80 276.5 80 298.55C80 320.61 97.94 338.55 120 338.55C130.02 338.55 139.07 334.72 146.1 328.62C148.01 330.08 157.58 337.39 174.82 350.55C157.58 363.71 148.01 371.03 146.1 372.49C139.07 366.39 130.02 362.55 120 362.55C97.94 362.55 80 380.5 80 402.55C80 424.61 97.94 442.55 120 442.55C139.31 442.55 155.47 428.79 159.19 410.55C164.95 410.55 211.05 410.55 216.81 410.55C217.49 413.87 218.7 416.97 220.14 419.94C212.74 425.59 153.5 470.83 146.1 476.48C139.07 470.39 130.02 466.55 120 466.55C97.94 466.55 80 484.5 80 506.55C80 528.61 97.94 546.55 120 546.55C142.06 546.55 160 528.61 160 506.55C160 500.3 158.43 494.45 155.86 489.17C163.26 483.51 222.5 438.28 229.9 432.63C236.93 438.72 245.98 442.55 256 442.55C275.31 442.55 291.47 428.79 295.19 410.55C297.91 410.55 311.52 410.55 336 410.55C336 420.15 336 425.49 336 426.55C336 439.79 346.77 450.55 360 450.55C373.23 450.55 384 439.79 384 426.55C384.85 426.55 389.08 426.55 396.69 426.55C452.88 482.75 484.1 513.97 490.34 520.21C491.84 521.71 493.88 522.55 496 522.55C497.75 522.55 511.72 522.55 513.47 522.55C516.78 531.84 525.58 538.55 536 538.55C549.23 538.55 560 527.79 560 514.55C560 501.32 549.23 490.55 536 490.55C525.58 490.55 516.78 497.27 513.47 506.55C512.53 506.55 507.81 506.55 499.31 506.55C443.12 450.36 411.9 419.14 405.66 412.9C404.16 411.39 402.12 410.55 400 410.55C398.93 410.55 393.6 410.55 384 410.55C384 408.95 384 400.95 384 386.55C406.01 386.55 418.24 386.55 420.69 386.55C457.68 423.55 478.23 444.1 482.34 448.21C483.84 449.71 485.88 450.55 488 450.55C490.55 450.55 510.92 450.55 513.47 450.55C516.78 459.84 525.58 466.55 536 466.55C549.23 466.55 560 455.79 560 442.55C560 429.32 549.23 418.55 536 418.55C525.58 418.55 516.78 425.27 513.47 434.55C511.99 434.55 504.61 434.55 491.31 434.55C454.32 397.56 433.77 377.01 429.66 372.9C428.16 371.39 426.12 370.55 424 370.55C421.33 370.55 408 370.55 384 370.55C384 368.95 384 360.95 384 346.55C425.21 346.55 448.11 346.55 452.69 346.55C470.48 364.35 480.37 374.23 482.34 376.21C483.84 377.71 485.88 378.55 488 378.55C490.55 378.55 510.92 378.55 513.47 378.55C516.78 387.84 525.58 394.55 536 394.55C549.23 394.55 560 383.79 560 370.55C560 357.32 549.23 346.55 536 346.55C525.58 346.55 516.78 353.27 513.47 362.55C511.99 362.55 504.61 362.55 491.31 362.55C473.52 344.76 463.63 334.87 461.66 332.9C460.16 331.39 458.12 330.55 456 330.55C451.2 330.55 427.2 330.55 384 330.55C384 328.15 384 308.95 384 306.55C461.68 306.55 504.84 306.55 513.47 306.55C516.78 315.84 525.58 322.55 536 322.55C549.23 322.55 560 311.79 560 298.55C560 285.32 549.23 274.55 536 274.55C525.58 274.55 516.78 281.27 513.47 290.55C504.84 290.55 461.68 290.55 384 290.55C384 288.15 384 268.95 384 266.55C427.2 266.55 451.2 266.55 456 266.55C458.12 266.55 460.16 265.71 461.66 264.21C463.63 262.23 473.52 252.35 491.31 234.55C504.61 234.55 511.99 234.55 513.47 234.55C516.78 243.84 525.58 250.55 536 250.55C549.23 250.55 560 239.79 560 226.55C560 213.32 549.23 202.55 536 202.55C525.58 202.55 516.78 209.27 513.47 218.55C510.92 218.55 490.55 218.55 488 218.55C485.88 218.55 483.84 219.39 482.34 220.9C480.37 222.87 470.48 232.76 452.69 250.55C448.11 250.55 425.21 250.55 384 250.55C384 236.15 384 228.15 384 226.55C408 226.55 421.33 226.55 424 226.55C426.12 226.55 428.16 225.71 429.66 224.21C433.77 220.1 454.32 199.55 491.31 162.55C504.61 162.55 511.99 162.55 513.47 162.55C516.78 171.84 525.58 178.55 536 178.55C549.23 178.55 560 167.79 560 154.55C560 141.32 549.23 130.55 536 130.55C525.58 130.55 516.78 137.27 513.47 146.55C510.92 146.55 490.55 146.55 488 146.55C485.88 146.55 483.84 147.39 482.34 148.9C478.23 153.01 457.68 173.56 420.69 210.55C418.24 210.55 406.01 210.55 384 210.55C384 196.15 384 188.15 384 186.55C392.53 186.55 397.87 186.55 400 186.55C402.12 186.55 404.16 185.71 405.66 184.21C411.9 177.97 443.12 146.75 499.31 90.55C507.81 90.55 512.53 90.55 513.47 90.55ZM536 74.55C540.41 74.55 544 78.14 544 82.55C544 86.97 540.41 90.55 536 90.55C531.59 90.55 528 86.97 528 82.55C528 78.14 531.59 74.55 536 74.55ZM536 506.55C540.41 506.55 544 510.14 544 514.55C544 518.97 540.41 522.55 536 522.55C531.59 522.55 528 518.97 528 514.55C528 510.14 531.59 506.55 536 506.55ZM536 434.55C540.41 434.55 544 438.14 544 442.55C544 446.97 540.41 450.55 536 450.55C531.59 450.55 528 446.97 528 442.55C528 438.14 531.59 434.55 536 434.55ZM536 362.55C540.41 362.55 544 366.14 544 370.55C544 374.97 540.41 378.55 536 378.55C531.59 378.55 528 374.97 528 370.55C528 366.14 531.59 362.55 536 362.55ZM536 290.55C540.41 290.55 544 294.14 544 298.55C544 302.97 540.41 306.55 536 306.55C531.59 306.55 528 302.97 528 298.55C528 294.14 531.59 290.55 536 290.55ZM536 218.55C540.41 218.55 544 222.14 544 226.55C544 230.97 540.41 234.55 536 234.55C531.59 234.55 528 230.97 528 226.55C528 222.14 531.59 218.55 536 218.55ZM536 146.55C540.41 146.55 544 150.14 544 154.55C544 158.97 540.41 162.55 536 162.55C531.59 162.55 528 158.97 528 154.55C528 150.14 531.59 146.55 536 146.55ZM256 258.55C245.98 258.55 236.93 262.39 229.9 268.49C227.99 267.03 218.42 259.71 201.18 246.55C218.42 233.39 227.99 226.08 229.9 224.62C236.93 230.72 245.98 234.55 256 234.55C275.31 234.55 291.47 220.79 295.19 202.55C300.63 202.55 314.24 202.55 336 202.55C336 220.15 336 281.75 336 290.55C311.52 290.55 297.91 290.55 295.19 290.55C291.47 272.32 275.32 258.55 256 258.55ZM232 298.55C232 285.32 242.77 274.55 256 274.55C269.23 274.55 280 285.32 280 298.55C280 311.79 269.23 322.55 256 322.55C242.77 322.55 232 311.79 232 298.55ZM256 170.55C269.23 170.55 280 181.32 280 194.55C280 207.79 269.23 218.55 256 218.55C242.77 218.55 232 207.79 232 194.55C232 181.32 242.77 170.55 256 170.55ZM120 114.55C106.77 114.55 96 103.79 96 90.55C96 77.32 106.77 66.55 120 66.55C133.23 66.55 144 77.32 144 90.55C144 103.79 133.23 114.55 120 114.55ZM120 218.55C106.77 218.55 96 207.79 96 194.55C96 181.32 106.77 170.55 120 170.55C133.23 170.55 144 181.32 144 194.55C144 207.79 133.23 218.55 120 218.55ZM220.14 211.94C218 213.57 207.29 221.76 188 236.49C170.86 223.39 160.14 215.21 155.86 211.94C157.3 208.97 158.51 205.87 159.19 202.55C164.95 202.55 211.05 202.55 216.81 202.55C217.49 205.87 218.7 208.97 220.14 211.94ZM155.86 281.17C158 279.53 168.71 271.35 188 256.63C205.14 269.72 215.86 277.9 220.14 281.17C218.7 284.14 217.49 287.23 216.81 290.55C211.05 290.55 164.95 290.55 159.19 290.55C158.51 287.23 157.3 284.14 155.86 281.17ZM120 322.55C106.77 322.55 96 311.79 96 298.55C96 285.32 106.77 274.55 120 274.55C133.23 274.55 144 285.32 144 298.55C144 311.79 133.23 322.55 120 322.55ZM220.14 315.94C218 317.57 207.29 325.76 188 340.49C170.86 327.39 160.14 319.21 155.86 315.94C157.3 312.97 158.51 309.87 159.19 306.55C164.95 306.55 211.05 306.55 216.81 306.55C217.49 309.87 218.7 312.97 220.14 315.94ZM220.14 385.17C218.7 388.14 217.49 391.23 216.81 394.55C205.28 394.55 164.95 394.55 159.19 394.55C158.51 391.23 157.3 388.14 155.86 385.17C158 383.53 168.71 375.35 188 360.63C207.29 375.35 218 383.53 220.14 385.17ZM120 426.55C106.77 426.55 96 415.79 96 402.55C96 389.32 106.77 378.55 120 378.55C133.23 378.55 144 389.32 144 402.55C144 415.79 133.23 426.55 120 426.55ZM120 530.55C106.77 530.55 96 519.79 96 506.55C96 493.32 106.77 482.55 120 482.55C133.23 482.55 144 493.32 144 506.55C144 519.79 133.23 530.55 120 530.55ZM256 426.55C242.77 426.55 232 415.79 232 402.55C232 389.32 242.77 378.55 256 378.55C269.23 378.55 280 389.32 280 402.55C280 415.79 269.23 426.55 256 426.55ZM201.18 350.55C218.42 337.39 227.99 330.08 229.9 328.62C236.93 334.72 245.98 338.55 256 338.55C275.31 338.55 291.47 324.79 295.19 306.55C297.91 306.55 311.52 306.55 336 306.55C336 315.35 336 385.75 336 394.55C314.24 394.55 300.63 394.55 295.19 394.55C291.47 376.32 275.32 362.55 256 362.55C245.98 362.55 236.93 366.39 229.9 372.49C227.99 371.03 218.42 363.71 201.18 350.55ZM352 162.55C352 158.14 355.59 154.55 360 154.55C364.41 154.55 368 158.14 368 162.55C368 215.35 368 373.75 368 426.55C368 430.97 364.41 434.55 360 434.55C355.59 434.55 352 430.97 352 426.55C352 400.15 352 188.95 352 162.55Z" id="aolR5ilYe"></path><path d="M513.47 90.55C516.78 99.84 525.58 106.55 536 106.55C549.23 106.55 560 95.79 560 82.55C560 69.32 549.23 58.55 536 58.55C525.58 58.55 516.78 65.27 513.47 74.55C511.72 74.55 497.75 74.55 496 74.55C493.88 74.55 491.84 75.39 490.34 76.9C484.1 83.14 452.88 114.36 396.69 170.55C395.42 170.55 385.27 170.55 384 170.55C384 165.75 384 163.09 384 162.55C384 149.32 373.23 138.55 360 138.55C346.77 138.55 336 149.32 336 162.55C336 164.15 336 172.15 336 186.55C311.52 186.55 297.91 186.55 295.19 186.55C291.47 168.32 275.32 154.55 256 154.55C245.98 154.55 236.93 158.39 229.9 164.49C222.5 158.83 163.26 113.6 155.86 107.95C158.43 102.66 160 96.81 160 90.55C160 68.5 142.06 50.55 120 50.55C97.94 50.55 80 68.5 80 90.55C80 112.61 97.94 130.55 120 130.55C130.02 130.55 139.07 126.72 146.1 120.62C153.5 126.27 212.74 171.51 220.14 177.16C218.7 180.13 217.49 183.23 216.81 186.55C211.05 186.55 164.95 186.55 159.19 186.55C155.47 168.32 139.31 154.55 120 154.55C97.94 154.55 80 172.5 80 194.55C80 216.61 97.94 234.55 120 234.55C130.02 234.55 139.07 230.72 146.1 224.62C148.01 226.08 157.58 233.39 174.82 246.55C157.58 259.71 148.01 267.03 146.1 268.49C139.07 262.39 130.02 258.55 120 258.55C97.94 258.55 80 276.5 80 298.55C80 320.61 97.94 338.55 120 338.55C130.02 338.55 139.07 334.72 146.1 328.62C148.01 330.08 157.58 337.39 174.82 350.55C157.58 363.71 148.01 371.03 146.1 372.49C139.07 366.39 130.02 362.55 120 362.55C97.94 362.55 80 380.5 80 402.55C80 424.61 97.94 442.55 120 442.55C139.31 442.55 155.47 428.79 159.19 410.55C164.95 410.55 211.05 410.55 216.81 410.55C217.49 413.87 218.7 416.97 220.14 419.94C212.74 425.59 153.5 470.83 146.1 476.48C139.07 470.39 130.02 466.55 120 466.55C97.94 466.55 80 484.5 80 506.55C80 528.61 97.94 546.55 120 546.55C142.06 546.55 160 528.61 160 506.55C160 500.3 158.43 494.45 155.86 489.17C163.26 483.51 222.5 438.28 229.9 432.63C236.93 438.72 245.98 442.55 256 442.55C275.31 442.55 291.47 428.79 295.19 410.55C297.91 410.55 311.52 410.55 336 410.55C336 420.15 336 425.49 336 426.55C336 439.79 346.77 450.55 360 450.55C373.23 450.55 384 439.79 384 426.55C384.85 426.55 389.08 426.55 396.69 426.55C452.88 482.75 484.1 513.97 490.34 520.21C491.84 521.71 493.88 522.55 496 522.55C497.75 522.55 511.72 522.55 513.47 522.55C516.78 531.84 525.58 538.55 536 538.55C549.23 538.55 560 527.79 560 514.55C560 501.32 549.23 490.55 536 490.55C525.58 490.55 516.78 497.27 513.47 506.55C512.53 506.55 507.81 506.55 499.31 506.55C443.12 450.36 411.9 419.14 405.66 412.9C404.16 411.39 402.12 410.55 400 410.55C398.93 410.55 393.6 410.55 384 410.55C384 408.95 384 400.95 384 386.55C406.01 386.55 418.24 386.55 420.69 386.55C457.68 423.55 478.23 444.1 482.34 448.21C483.84 449.71 485.88 450.55 488 450.55C490.55 450.55 510.92 450.55 513.47 450.55C516.78 459.84 525.58 466.55 536 466.55C549.23 466.55 560 455.79 560 442.55C560 429.32 549.23 418.55 536 418.55C525.58 418.55 516.78 425.27 513.47 434.55C511.99 434.55 504.61 434.55 491.31 434.55C454.32 397.56 433.77 377.01 429.66 372.9C428.16 371.39 426.12 370.55 424 370.55C421.33 370.55 408 370.55 384 370.55C384 368.95 384 360.95 384 346.55C425.21 346.55 448.11 346.55 452.69 346.55C470.48 364.35 480.37 374.23 482.34 376.21C483.84 377.71 485.88 378.55 488 378.55C490.55 378.55 510.92 378.55 513.47 378.55C516.78 387.84 525.58 394.55 536 394.55C549.23 394.55 560 383.79 560 370.55C560 357.32 549.23 346.55 536 346.55C525.58 346.55 516.78 353.27 513.47 362.55C511.99 362.55 504.61 362.55 491.31 362.55C473.52 344.76 463.63 334.87 461.66 332.9C460.16 331.39 458.12 330.55 456 330.55C451.2 330.55 427.2 330.55 384 330.55C384 328.15 384 308.95 384 306.55C461.68 306.55 504.84 306.55 513.47 306.55C516.78 315.84 525.58 322.55 536 322.55C549.23 322.55 560 311.79 560 298.55C560 285.32 549.23 274.55 536 274.55C525.58 274.55 516.78 281.27 513.47 290.55C504.84 290.55 461.68 290.55 384 290.55C384 288.15 384 268.95 384 266.55C427.2 266.55 451.2 266.55 456 266.55C458.12 266.55 460.16 265.71 461.66 264.21C463.63 262.23 473.52 252.35 491.31 234.55C504.61 234.55 511.99 234.55 513.47 234.55C516.78 243.84 525.58 250.55 536 250.55C549.23 250.55 560 239.79 560 226.55C560 213.32 549.23 202.55 536 202.55C525.58 202.55 516.78 209.27 513.47 218.55C510.92 218.55 490.55 218.55 488 218.55C485.88 218.55 483.84 219.39 482.34 220.9C480.37 222.87 470.48 232.76 452.69 250.55C448.11 250.55 425.21 250.55 384 250.55C384 236.15 384 228.15 384 226.55C408 226.55 421.33 226.55 424 226.55C426.12 226.55 428.16 225.71 429.66 224.21C433.77 220.1 454.32 199.55 491.31 162.55C504.61 162.55 511.99 162.55 513.47 162.55C516.78 171.84 525.58 178.55 536 178.55C549.23 178.55 560 167.79 560 154.55C560 141.32 549.23 130.55 536 130.55C525.58 130.55 516.78 137.27 513.47 146.55C510.92 146.55 490.55 146.55 488 146.55C485.88 146.55 483.84 147.39 482.34 148.9C478.23 153.01 457.68 173.56 420.69 210.55C418.24 210.55 406.01 210.55 384 210.55C384 196.15 384 188.15 384 186.55C392.53 186.55 397.87 186.55 400 186.55C402.12 186.55 404.16 185.71 405.66 184.21C411.9 177.97 443.12 146.75 499.31 90.55C507.81 90.55 512.53 90.55 513.47 90.55ZM536 74.55C540.41 74.55 544 78.14 544 82.55C544 86.97 540.41 90.55 536 90.55C531.59 90.55 528 86.97 528 82.55C528 78.14 531.59 74.55 536 74.55ZM536 506.55C540.41 506.55 544 510.14 544 514.55C544 518.97 540.41 522.55 536 522.55C531.59 522.55 528 518.97 528 514.55C528 510.14 531.59 506.55 536 506.55ZM536 434.55C540.41 434.55 544 438.14 544 442.55C544 446.97 540.41 450.55 536 450.55C531.59 450.55 528 446.97 528 442.55C528 438.14 531.59 434.55 536 434.55ZM536 362.55C540.41 362.55 544 366.14 544 370.55C544 374.97 540.41 378.55 536 378.55C531.59 378.55 528 374.97 528 370.55C528 366.14 531.59 362.55 536 362.55ZM536 290.55C540.41 290.55 544 294.14 544 298.55C544 302.97 540.41 306.55 536 306.55C531.59 306.55 528 302.97 528 298.55C528 294.14 531.59 290.55 536 290.55ZM536 218.55C540.41 218.55 544 222.14 544 226.55C544 230.97 540.41 234.55 536 234.55C531.59 234.55 528 230.97 528 226.55C528 222.14 531.59 218.55 536 218.55ZM536 146.55C540.41 146.55 544 150.14 544 154.55C544 158.97 540.41 162.55 536 162.55C531.59 162.55 528 158.97 528 154.55C528 150.14 531.59 146.55 536 146.55ZM256 258.55C245.98 258.55 236.93 262.39 229.9 268.49C227.99 267.03 218.42 259.71 201.18 246.55C218.42 233.39 227.99 226.08 229.9 224.62C236.93 230.72 245.98 234.55 256 234.55C275.31 234.55 291.47 220.79 295.19 202.55C300.63 202.55 314.24 202.55 336 202.55C336 220.15 336 281.75 336 290.55C311.52 290.55 297.91 290.55 295.19 290.55C291.47 272.32 275.32 258.55 256 258.55ZM232 298.55C232 285.32 242.77 274.55 256 274.55C269.23 274.55 280 285.32 280 298.55C280 311.79 269.23 322.55 256 322.55C242.77 322.55 232 311.79 232 298.55ZM256 170.55C269.23 170.55 280 181.32 280 194.55C280 207.79 269.23 218.55 256 218.55C242.77 218.55 232 207.79 232 194.55C232 181.32 242.77 170.55 256 170.55ZM120 114.55C106.77 114.55 96 103.79 96 90.55C96 77.32 106.77 66.55 120 66.55C133.23 66.55 144 77.32 144 90.55C144 103.79 133.23 114.55 120 114.55ZM120 218.55C106.77 218.55 96 207.79 96 194.55C96 181.32 106.77 170.55 120 170.55C133.23 170.55 144 181.32 144 194.55C144 207.79 133.23 218.55 120 218.55ZM220.14 211.94C218 213.57 207.29 221.76 188 236.49C170.86 223.39 160.14 215.21 155.86 211.94C157.3 208.97 158.51 205.87 159.19 202.55C164.95 202.55 211.05 202.55 216.81 202.55C217.49 205.87 218.7 208.97 220.14 211.94ZM155.86 281.17C158 279.53 168.71 271.35 188 256.63C205.14 269.72 215.86 277.9 220.14 281.17C218.7 284.14 217.49 287.23 216.81 290.55C211.05 290.55 164.95 290.55 159.19 290.55C158.51 287.23 157.3 284.14 155.86 281.17ZM120 322.55C106.77 322.55 96 311.79 96 298.55C96 285.32 106.77 274.55 120 274.55C133.23 274.55 144 285.32 144 298.55C144 311.79 133.23 322.55 120 322.55ZM220.14 315.94C218 317.57 207.29 325.76 188 340.49C170.86 327.39 160.14 319.21 155.86 315.94C157.3 312.97 158.51 309.87 159.19 306.55C164.95 306.55 211.05 306.55 216.81 306.55C217.49 309.87 218.7 312.97 220.14 315.94ZM220.14 385.17C218.7 388.14 217.49 391.23 216.81 394.55C205.28 394.55 164.95 394.55 159.19 394.55C158.51 391.23 157.3 388.14 155.86 385.17C158 383.53 168.71 375.35 188 360.63C207.29 375.35 218 383.53 220.14 385.17ZM120 426.55C106.77 426.55 96 415.79 96 402.55C96 389.32 106.77 378.55 120 378.55C133.23 378.55 144 389.32 144 402.55C144 415.79 133.23 426.55 120 426.55ZM120 530.55C106.77 530.55 96 519.79 96 506.55C96 493.32 106.77 482.55 120 482.55C133.23 482.55 144 493.32 144 506.55C144 519.79 133.23 530.55 120 530.55ZM256 426.55C242.77 426.55 232 415.79 232 402.55C232 389.32 242.77 378.55 256 378.55C269.23 378.55 280 389.32 280 402.55C280 415.79 269.23 426.55 256 426.55ZM201.18 350.55C218.42 337.39 227.99 330.08 229.9 328.62C236.93 334.72 245.98 338.55 256 338.55C275.31 338.55 291.47 324.79 295.19 306.55C297.91 306.55 311.52 306.55 336 306.55C336 315.35 336 385.75 336 394.55C314.24 394.55 300.63 394.55 295.19 394.55C291.47 376.32 275.32 362.55 256 362.55C245.98 362.55 236.93 366.39 229.9 372.49C227.99 371.03 218.42 363.71 201.18 350.55ZM352 162.55C352 158.14 355.59 154.55 360 154.55C364.41 154.55 368 158.14 368 162.55C368 215.35 368 373.75 368 426.55C368 430.97 364.41 434.55 360 434.55C355.59 434.55 352 430.97 352 426.55C352 400.15 352 188.95 352 162.55Z" id="b1ClVifh9C"></path><path d="M513.47 90.55C516.78 99.84 525.58 106.55 536 106.55C549.23 106.55 560 95.79 560 82.55C560 69.32 549.23 58.55 536 58.55C525.58 58.55 516.78 65.27 513.47 74.55C511.72 74.55 497.75 74.55 496 74.55C493.88 74.55 491.84 75.39 490.34 76.9C484.1 83.14 452.88 114.36 396.69 170.55C395.42 170.55 385.27 170.55 384 170.55C384 165.75 384 163.09 384 162.55C384 149.32 373.23 138.55 360 138.55C346.77 138.55 336 149.32 336 162.55C336 164.15 336 172.15 336 186.55C311.52 186.55 297.91 186.55 295.19 186.55C291.47 168.32 275.32 154.55 256 154.55C245.98 154.55 236.93 158.39 229.9 164.49C222.5 158.83 163.26 113.6 155.86 107.95C158.43 102.66 160 96.81 160 90.55C160 68.5 142.06 50.55 120 50.55C97.94 50.55 80 68.5 80 90.55C80 112.61 97.94 130.55 120 130.55C130.02 130.55 139.07 126.72 146.1 120.62C153.5 126.27 212.74 171.51 220.14 177.16C218.7 180.13 217.49 183.23 216.81 186.55C211.05 186.55 164.95 186.55 159.19 186.55C155.47 168.32 139.31 154.55 120 154.55C97.94 154.55 80 172.5 80 194.55C80 216.61 97.94 234.55 120 234.55C130.02 234.55 139.07 230.72 146.1 224.62C148.01 226.08 157.58 233.39 174.82 246.55C157.58 259.71 148.01 267.03 146.1 268.49C139.07 262.39 130.02 258.55 120 258.55C97.94 258.55 80 276.5 80 298.55C80 320.61 97.94 338.55 120 338.55C130.02 338.55 139.07 334.72 146.1 328.62C148.01 330.08 157.58 337.39 174.82 350.55C157.58 363.71 148.01 371.03 146.1 372.49C139.07 366.39 130.02 362.55 120 362.55C97.94 362.55 80 380.5 80 402.55C80 424.61 97.94 442.55 120 442.55C139.31 442.55 155.47 428.79 159.19 410.55C164.95 410.55 211.05 410.55 216.81 410.55C217.49 413.87 218.7 416.97 220.14 419.94C212.74 425.59 153.5 470.83 146.1 476.48C139.07 470.39 130.02 466.55 120 466.55C97.94 466.55 80 484.5 80 506.55C80 528.61 97.94 546.55 120 546.55C142.06 546.55 160 528.61 160 506.55C160 500.3 158.43 494.45 155.86 489.17C163.26 483.51 222.5 438.28 229.9 432.63C236.93 438.72 245.98 442.55 256 442.55C275.31 442.55 291.47 428.79 295.19 410.55C297.91 410.55 311.52 410.55 336 410.55C336 420.15 336 425.49 336 426.55C336 439.79 346.77 450.55 360 450.55C373.23 450.55 384 439.79 384 426.55C384.85 426.55 389.08 426.55 396.69 426.55C452.88 482.75 484.1 513.97 490.34 520.21C491.84 521.71 493.88 522.55 496 522.55C497.75 522.55 511.72 522.55 513.47 522.55C516.78 531.84 525.58 538.55 536 538.55C549.23 538.55 560 527.79 560 514.55C560 501.32 549.23 490.55 536 490.55C525.58 490.55 516.78 497.27 513.47 506.55C512.53 506.55 507.81 506.55 499.31 506.55C443.12 450.36 411.9 419.14 405.66 412.9C404.16 411.39 402.12 410.55 400 410.55C398.93 410.55 393.6 410.55 384 410.55C384 408.95 384 400.95 384 386.55C406.01 386.55 418.24 386.55 420.69 386.55C457.68 423.55 478.23 444.1 482.34 448.21C483.84 449.71 485.88 450.55 488 450.55C490.55 450.55 510.92 450.55 513.47 450.55C516.78 459.84 525.58 466.55 536 466.55C549.23 466.55 560 455.79 560 442.55C560 429.32 549.23 418.55 536 418.55C525.58 418.55 516.78 425.27 513.47 434.55C511.99 434.55 504.61 434.55 491.31 434.55C454.32 397.56 433.77 377.01 429.66 372.9C428.16 371.39 426.12 370.55 424 370.55C421.33 370.55 408 370.55 384 370.55C384 368.95 384 360.95 384 346.55C425.21 346.55 448.11 346.55 452.69 346.55C470.48 364.35 480.37 374.23 482.34 376.21C483.84 377.71 485.88 378.55 488 378.55C490.55 378.55 510.92 378.55 513.47 378.55C516.78 387.84 525.58 394.55 536 394.55C549.23 394.55 560 383.79 560 370.55C560 357.32 549.23 346.55 536 346.55C525.58 346.55 516.78 353.27 513.47 362.55C511.99 362.55 504.61 362.55 491.31 362.55C473.52 344.76 463.63 334.87 461.66 332.9C460.16 331.39 458.12 330.55 456 330.55C451.2 330.55 427.2 330.55 384 330.55C384 328.15 384 308.95 384 306.55C461.68 306.55 504.84 306.55 513.47 306.55C516.78 315.84 525.58 322.55 536 322.55C549.23 322.55 560 311.79 560 298.55C560 285.32 549.23 274.55 536 274.55C525.58 274.55 516.78 281.27 513.47 290.55C504.84 290.55 461.68 290.55 384 290.55C384 288.15 384 268.95 384 266.55C427.2 266.55 451.2 266.55 456 266.55C458.12 266.55 460.16 265.71 461.66 264.21C463.63 262.23 473.52 252.35 491.31 234.55C504.61 234.55 511.99 234.55 513.47 234.55C516.78 243.84 525.58 250.55 536 250.55C549.23 250.55 560 239.79 560 226.55C560 213.32 549.23 202.55 536 202.55C525.58 202.55 516.78 209.27 513.47 218.55C510.92 218.55 490.55 218.55 488 218.55C485.88 218.55 483.84 219.39 482.34 220.9C480.37 222.87 470.48 232.76 452.69 250.55C448.11 250.55 425.21 250.55 384 250.55C384 236.15 384 228.15 384 226.55C408 226.55 421.33 226.55 424 226.55C426.12 226.55 428.16 225.71 429.66 224.21C433.77 220.1 454.32 199.55 491.31 162.55C504.61 162.55 511.99 162.55 513.47 162.55C516.78 171.84 525.58 178.55 536 178.55C549.23 178.55 560 167.79 560 154.55C560 141.32 549.23 130.55 536 130.55C525.58 130.55 516.78 137.27 513.47 146.55C510.92 146.55 490.55 146.55 488 146.55C485.88 146.55 483.84 147.39 482.34 148.9C478.23 153.01 457.68 173.56 420.69 210.55C418.24 210.55 406.01 210.55 384 210.55C384 196.15 384 188.15 384 186.55C392.53 186.55 397.87 186.55 400 186.55C402.12 186.55 404.16 185.71 405.66 184.21C411.9 177.97 443.12 146.75 499.31 90.55C507.81 90.55 512.53 90.55 513.47 90.55ZM536 74.55C540.41 74.55 544 78.14 544 82.55C544 86.97 540.41 90.55 536 90.55C531.59 90.55 528 86.97 528 82.55C528 78.14 531.59 74.55 536 74.55ZM536 506.55C540.41 506.55 544 510.14 544 514.55C544 518.97 540.41 522.55 536 522.55C531.59 522.55 528 518.97 528 514.55C528 510.14 531.59 506.55 536 506.55ZM536 434.55C540.41 434.55 544 438.14 544 442.55C544 446.97 540.41 450.55 536 450.55C531.59 450.55 528 446.97 528 442.55C528 438.14 531.59 434.55 536 434.55ZM536 362.55C540.41 362.55 544 366.14 544 370.55C544 374.97 540.41 378.55 536 378.55C531.59 378.55 528 374.97 528 370.55C528 366.14 531.59 362.55 536 362.55ZM536 290.55C540.41 290.55 544 294.14 544 298.55C544 302.97 540.41 306.55 536 306.55C531.59 306.55 528 302.97 528 298.55C528 294.14 531.59 290.55 536 290.55ZM536 218.55C540.41 218.55 544 222.14 544 226.55C544 230.97 540.41 234.55 536 234.55C531.59 234.55 528 230.97 528 226.55C528 222.14 531.59 218.55 536 218.55ZM536 146.55C540.41 146.55 544 150.14 544 154.55C544 158.97 540.41 162.55 536 162.55C531.59 162.55 528 158.97 528 154.55C528 150.14 531.59 146.55 536 146.55ZM256 258.55C245.98 258.55 236.93 262.39 229.9 268.49C227.99 267.03 218.42 259.71 201.18 246.55C218.42 233.39 227.99 226.08 229.9 224.62C236.93 230.72 245.98 234.55 256 234.55C275.31 234.55 291.47 220.79 295.19 202.55C300.63 202.55 314.24 202.55 336 202.55C336 220.15 336 281.75 336 290.55C311.52 290.55 297.91 290.55 295.19 290.55C291.47 272.32 275.32 258.55 256 258.55ZM232 298.55C232 285.32 242.77 274.55 256 274.55C269.23 274.55 280 285.32 280 298.55C280 311.79 269.23 322.55 256 322.55C242.77 322.55 232 311.79 232 298.55ZM256 170.55C269.23 170.55 280 181.32 280 194.55C280 207.79 269.23 218.55 256 218.55C242.77 218.55 232 207.79 232 194.55C232 181.32 242.77 170.55 256 170.55ZM120 114.55C106.77 114.55 96 103.79 96 90.55C96 77.32 106.77 66.55 120 66.55C133.23 66.55 144 77.32 144 90.55C144 103.79 133.23 114.55 120 114.55ZM120 218.55C106.77 218.55 96 207.79 96 194.55C96 181.32 106.77 170.55 120 170.55C133.23 170.55 144 181.32 144 194.55C144 207.79 133.23 218.55 120 218.55ZM220.14 211.94C218 213.57 207.29 221.76 188 236.49C170.86 223.39 160.14 215.21 155.86 211.94C157.3 208.97 158.51 205.87 159.19 202.55C164.95 202.55 211.05 202.55 216.81 202.55C217.49 205.87 218.7 208.97 220.14 211.94ZM155.86 281.17C158 279.53 168.71 271.35 188 256.63C205.14 269.72 215.86 277.9 220.14 281.17C218.7 284.14 217.49 287.23 216.81 290.55C211.05 290.55 164.95 290.55 159.19 290.55C158.51 287.23 157.3 284.14 155.86 281.17ZM120 322.55C106.77 322.55 96 311.79 96 298.55C96 285.32 106.77 274.55 120 274.55C133.23 274.55 144 285.32 144 298.55C144 311.79 133.23 322.55 120 322.55ZM220.14 315.94C218 317.57 207.29 325.76 188 340.49C170.86 327.39 160.14 319.21 155.86 315.94C157.3 312.97 158.51 309.87 159.19 306.55C164.95 306.55 211.05 306.55 216.81 306.55C217.49 309.87 218.7 312.97 220.14 315.94ZM220.14 385.17C218.7 388.14 217.49 391.23 216.81 394.55C205.28 394.55 164.95 394.55 159.19 394.55C158.51 391.23 157.3 388.14 155.86 385.17C158 383.53 168.71 375.35 188 360.63C207.29 375.35 218 383.53 220.14 385.17ZM120 426.55C106.77 426.55 96 415.79 96 402.55C96 389.32 106.77 378.55 120 378.55C133.23 378.55 144 389.32 144 402.55C144 415.79 133.23 426.55 120 426.55ZM120 530.55C106.77 530.55 96 519.79 96 506.55C96 493.32 106.77 482.55 120 482.55C133.23 482.55 144 493.32 144 506.55C144 519.79 133.23 530.55 120 530.55ZM256 426.55C242.77 426.55 232 415.79 232 402.55C232 389.32 242.77 378.55 256 378.55C269.23 378.55 280 389.32 280 402.55C280 415.79 269.23 426.55 256 426.55ZM201.18 350.55C218.42 337.39 227.99 330.08 229.9 328.62C236.93 334.72 245.98 338.55 256 338.55C275.31 338.55 291.47 324.79 295.19 306.55C297.91 306.55 311.52 306.55 336 306.55C336 315.35 336 385.75 336 394.55C314.24 394.55 300.63 394.55 295.19 394.55C291.47 376.32 275.32 362.55 256 362.55C245.98 362.55 236.93 366.39 229.9 372.49C227.99 371.03 218.42 363.71 201.18 350.55ZM352 162.55C352 158.14 355.59 154.55 360 154.55C364.41 154.55 368 158.14 368 162.55C368 215.35 368 373.75 368 426.55C368 430.97 364.41 434.55 360 434.55C355.59 434.55 352 430.97 352 426.55C352 400.15 352 188.95 352 162.55Z" id="d1683VLw7S"></path><path d="M513.47 90.55C516.78 99.84 525.58 106.55 536 106.55C549.23 106.55 560 95.79 560 82.55C560 69.32 549.23 58.55 536 58.55C525.58 58.55 516.78 65.27 513.47 74.55C511.72 74.55 497.75 74.55 496 74.55C493.88 74.55 491.84 75.39 490.34 76.9C484.1 83.14 452.88 114.36 396.69 170.55C395.42 170.55 385.27 170.55 384 170.55C384 165.75 384 163.09 384 162.55C384 149.32 373.23 138.55 360 138.55C346.77 138.55 336 149.32 336 162.55C336 164.15 336 172.15 336 186.55C311.52 186.55 297.91 186.55 295.19 186.55C291.47 168.32 275.32 154.55 256 154.55C245.98 154.55 236.93 158.39 229.9 164.49C222.5 158.83 163.26 113.6 155.86 107.95C158.43 102.66 160 96.81 160 90.55C160 68.5 142.06 50.55 120 50.55C97.94 50.55 80 68.5 80 90.55C80 112.61 97.94 130.55 120 130.55C130.02 130.55 139.07 126.72 146.1 120.62C153.5 126.27 212.74 171.51 220.14 177.16C218.7 180.13 217.49 183.23 216.81 186.55C211.05 186.55 164.95 186.55 159.19 186.55C155.47 168.32 139.31 154.55 120 154.55C97.94 154.55 80 172.5 80 194.55C80 216.61 97.94 234.55 120 234.55C130.02 234.55 139.07 230.72 146.1 224.62C148.01 226.08 157.58 233.39 174.82 246.55C157.58 259.71 148.01 267.03 146.1 268.49C139.07 262.39 130.02 258.55 120 258.55C97.94 258.55 80 276.5 80 298.55C80 320.61 97.94 338.55 120 338.55C130.02 338.55 139.07 334.72 146.1 328.62C148.01 330.08 157.58 337.39 174.82 350.55C157.58 363.71 148.01 371.03 146.1 372.49C139.07 366.39 130.02 362.55 120 362.55C97.94 362.55 80 380.5 80 402.55C80 424.61 97.94 442.55 120 442.55C139.31 442.55 155.47 428.79 159.19 410.55C164.95 410.55 211.05 410.55 216.81 410.55C217.49 413.87 218.7 416.97 220.14 419.94C212.74 425.59 153.5 470.83 146.1 476.48C139.07 470.39 130.02 466.55 120 466.55C97.94 466.55 80 484.5 80 506.55C80 528.61 97.94 546.55 120 546.55C142.06 546.55 160 528.61 160 506.55C160 500.3 158.43 494.45 155.86 489.17C163.26 483.51 222.5 438.28 229.9 432.63C236.93 438.72 245.98 442.55 256 442.55C275.31 442.55 291.47 428.79 295.19 410.55C297.91 410.55 311.52 410.55 336 410.55C336 420.15 336 425.49 336 426.55C336 439.79 346.77 450.55 360 450.55C373.23 450.55 384 439.79 384 426.55C384.85 426.55 389.08 426.55 396.69 426.55C452.88 482.75 484.1 513.97 490.34 520.21C491.84 521.71 493.88 522.55 496 522.55C497.75 522.55 511.72 522.55 513.47 522.55C516.78 531.84 525.58 538.55 536 538.55C549.23 538.55 560 527.79 560 514.55C560 501.32 549.23 490.55 536 490.55C525.58 490.55 516.78 497.27 513.47 506.55C512.53 506.55 507.81 506.55 499.31 506.55C443.12 450.36 411.9 419.14 405.66 412.9C404.16 411.39 402.12 410.55 400 410.55C398.93 410.55 393.6 410.55 384 410.55C384 408.95 384 400.95 384 386.55C406.01 386.55 418.24 386.55 420.69 386.55C457.68 423.55 478.23 444.1 482.34 448.21C483.84 449.71 485.88 450.55 488 450.55C490.55 450.55 510.92 450.55 513.47 450.55C516.78 459.84 525.58 466.55 536 466.55C549.23 466.55 560 455.79 560 442.55C560 429.32 549.23 418.55 536 418.55C525.58 418.55 516.78 425.27 513.47 434.55C511.99 434.55 504.61 434.55 491.31 434.55C454.32 397.56 433.77 377.01 429.66 372.9C428.16 371.39 426.12 370.55 424 370.55C421.33 370.55 408 370.55 384 370.55C384 368.95 384 360.95 384 346.55C425.21 346.55 448.11 346.55 452.69 346.55C470.48 364.35 480.37 374.23 482.34 376.21C483.84 377.71 485.88 378.55 488 378.55C490.55 378.55 510.92 378.55 513.47 378.55C516.78 387.84 525.58 394.55 536 394.55C549.23 394.55 560 383.79 560 370.55C560 357.32 549.23 346.55 536 346.55C525.58 346.55 516.78 353.27 513.47 362.55C511.99 362.55 504.61 362.55 491.31 362.55C473.52 344.76 463.63 334.87 461.66 332.9C460.16 331.39 458.12 330.55 456 330.55C451.2 330.55 427.2 330.55 384 330.55C384 328.15 384 308.95 384 306.55C461.68 306.55 504.84 306.55 513.47 306.55C516.78 315.84 525.58 322.55 536 322.55C549.23 322.55 560 311.79 560 298.55C560 285.32 549.23 274.55 536 274.55C525.58 274.55 516.78 281.27 513.47 290.55C504.84 290.55 461.68 290.55 384 290.55C384 288.15 384 268.95 384 266.55C427.2 266.55 451.2 266.55 456 266.55C458.12 266.55 460.16 265.71 461.66 264.21C463.63 262.23 473.52 252.35 491.31 234.55C504.61 234.55 511.99 234.55 513.47 234.55C516.78 243.84 525.58 250.55 536 250.55C549.23 250.55 560 239.79 560 226.55C560 213.32 549.23 202.55 536 202.55C525.58 202.55 516.78 209.27 513.47 218.55C510.92 218.55 490.55 218.55 488 218.55C485.88 218.55 483.84 219.39 482.34 220.9C480.37 222.87 470.48 232.76 452.69 250.55C448.11 250.55 425.21 250.55 384 250.55C384 236.15 384 228.15 384 226.55C408 226.55 421.33 226.55 424 226.55C426.12 226.55 428.16 225.71 429.66 224.21C433.77 220.1 454.32 199.55 491.31 162.55C504.61 162.55 511.99 162.55 513.47 162.55C516.78 171.84 525.58 178.55 536 178.55C549.23 178.55 560 167.79 560 154.55C560 141.32 549.23 130.55 536 130.55C525.58 130.55 516.78 137.27 513.47 146.55C510.92 146.55 490.55 146.55 488 146.55C485.88 146.55 483.84 147.39 482.34 148.9C478.23 153.01 457.68 173.56 420.69 210.55C418.24 210.55 406.01 210.55 384 210.55C384 196.15 384 188.15 384 186.55C392.53 186.55 397.87 186.55 400 186.55C402.12 186.55 404.16 185.71 405.66 184.21C411.9 177.97 443.12 146.75 499.31 90.55C507.81 90.55 512.53 90.55 513.47 90.55ZM536 74.55C540.41 74.55 544 78.14 544 82.55C544 86.97 540.41 90.55 536 90.55C531.59 90.55 528 86.97 528 82.55C528 78.14 531.59 74.55 536 74.55ZM536 506.55C540.41 506.55 544 510.14 544 514.55C544 518.97 540.41 522.55 536 522.55C531.59 522.55 528 518.97 528 514.55C528 510.14 531.59 506.55 536 506.55ZM536 434.55C540.41 434.55 544 438.14 544 442.55C544 446.97 540.41 450.55 536 450.55C531.59 450.55 528 446.97 528 442.55C528 438.14 531.59 434.55 536 434.55ZM536 362.55C540.41 362.55 544 366.14 544 370.55C544 374.97 540.41 378.55 536 378.55C531.59 378.55 528 374.97 528 370.55C528 366.14 531.59 362.55 536 362.55ZM536 290.55C540.41 290.55 544 294.14 544 298.55C544 302.97 540.41 306.55 536 306.55C531.59 306.55 528 302.97 528 298.55C528 294.14 531.59 290.55 536 290.55ZM536 218.55C540.41 218.55 544 222.14 544 226.55C544 230.97 540.41 234.55 536 234.55C531.59 234.55 528 230.97 528 226.55C528 222.14 531.59 218.55 536 218.55ZM536 146.55C540.41 146.55 544 150.14 544 154.55C544 158.97 540.41 162.55 536 162.55C531.59 162.55 528 158.97 528 154.55C528 150.14 531.59 146.55 536 146.55ZM256 258.55C245.98 258.55 236.93 262.39 229.9 268.49C227.99 267.03 218.42 259.71 201.18 246.55C218.42 233.39 227.99 226.08 229.9 224.62C236.93 230.72 245.98 234.55 256 234.55C275.31 234.55 291.47 220.79 295.19 202.55C300.63 202.55 314.24 202.55 336 202.55C336 220.15 336 281.75 336 290.55C311.52 290.55 297.91 290.55 295.19 290.55C291.47 272.32 275.32 258.55 256 258.55ZM232 298.55C232 285.32 242.77 274.55 256 274.55C269.23 274.55 280 285.32 280 298.55C280 311.79 269.23 322.55 256 322.55C242.77 322.55 232 311.79 232 298.55ZM256 170.55C269.23 170.55 280 181.32 280 194.55C280 207.79 269.23 218.55 256 218.55C242.77 218.55 232 207.79 232 194.55C232 181.32 242.77 170.55 256 170.55ZM120 114.55C106.77 114.55 96 103.79 96 90.55C96 77.32 106.77 66.55 120 66.55C133.23 66.55 144 77.32 144 90.55C144 103.79 133.23 114.55 120 114.55ZM120 218.55C106.77 218.55 96 207.79 96 194.55C96 181.32 106.77 170.55 120 170.55C133.23 170.55 144 181.32 144 194.55C144 207.79 133.23 218.55 120 218.55ZM220.14 211.94C218 213.57 207.29 221.76 188 236.49C170.86 223.39 160.14 215.21 155.86 211.94C157.3 208.97 158.51 205.87 159.19 202.55C164.95 202.55 211.05 202.55 216.81 202.55C217.49 205.87 218.7 208.97 220.14 211.94ZM155.86 281.17C158 279.53 168.71 271.35 188 256.63C205.14 269.72 215.86 277.9 220.14 281.17C218.7 284.14 217.49 287.23 216.81 290.55C211.05 290.55 164.95 290.55 159.19 290.55C158.51 287.23 157.3 284.14 155.86 281.17ZM120 322.55C106.77 322.55 96 311.79 96 298.55C96 285.32 106.77 274.55 120 274.55C133.23 274.55 144 285.32 144 298.55C144 311.79 133.23 322.55 120 322.55ZM220.14 315.94C218 317.57 207.29 325.76 188 340.49C170.86 327.39 160.14 319.21 155.86 315.94C157.3 312.97 158.51 309.87 159.19 306.55C164.95 306.55 211.05 306.55 216.81 306.55C217.49 309.87 218.7 312.97 220.14 315.94ZM220.14 385.17C218.7 388.14 217.49 391.23 216.81 394.55C205.28 394.55 164.95 394.55 159.19 394.55C158.51 391.23 157.3 388.14 155.86 385.17C158 383.53 168.71 375.35 188 360.63C207.29 375.35 218 383.53 220.14 385.17ZM120 426.55C106.77 426.55 96 415.79 96 402.55C96 389.32 106.77 378.55 120 378.55C133.23 378.55 144 389.32 144 402.55C144 415.79 133.23 426.55 120 426.55ZM120 530.55C106.77 530.55 96 519.79 96 506.55C96 493.32 106.77 482.55 120 482.55C133.23 482.55 144 493.32 144 506.55C144 519.79 133.23 530.55 120 530.55ZM256 426.55C242.77 426.55 232 415.79 232 402.55C232 389.32 242.77 378.55 256 378.55C269.23 378.55 280 389.32 280 402.55C280 415.79 269.23 426.55 256 426.55ZM201.18 350.55C218.42 337.39 227.99 330.08 229.9 328.62C236.93 334.72 245.98 338.55 256 338.55C275.31 338.55 291.47 324.79 295.19 306.55C297.91 306.55 311.52 306.55 336 306.55C336 315.35 336 385.75 336 394.55C314.24 394.55 300.63 394.55 295.19 394.55C291.47 376.32 275.32 362.55 256 362.55C245.98 362.55 236.93 366.39 229.9 372.49C227.99 371.03 218.42 363.71 201.18 350.55ZM352 162.55C352 158.14 355.59 154.55 360 154.55C364.41 154.55 368 158.14 368 162.55C368 215.35 368 373.75 368 426.55C368 430.97 364.41 434.55 360 434.55C355.59 434.55 352 430.97 352 426.55C352 400.15 352 188.95 352 162.55Z" id="bUWVfV8cg"></path><path d="M513.47 90.55C516.78 99.84 525.58 106.55 536 106.55C549.23 106.55 560 95.79 560 82.55C560 69.32 549.23 58.55 536 58.55C525.58 58.55 516.78 65.27 513.47 74.55C511.72 74.55 497.75 74.55 496 74.55C493.88 74.55 491.84 75.39 490.34 76.9C484.1 83.14 452.88 114.36 396.69 170.55C395.42 170.55 385.27 170.55 384 170.55C384 165.75 384 163.09 384 162.55C384 149.32 373.23 138.55 360 138.55C346.77 138.55 336 149.32 336 162.55C336 164.15 336 172.15 336 186.55C311.52 186.55 297.91 186.55 295.19 186.55C291.47 168.32 275.32 154.55 256 154.55C245.98 154.55 236.93 158.39 229.9 164.49C222.5 158.83 163.26 113.6 155.86 107.95C158.43 102.66 160 96.81 160 90.55C160 68.5 142.06 50.55 120 50.55C97.94 50.55 80 68.5 80 90.55C80 112.61 97.94 130.55 120 130.55C130.02 130.55 139.07 126.72 146.1 120.62C153.5 126.27 212.74 171.51 220.14 177.16C218.7 180.13 217.49 183.23 216.81 186.55C211.05 186.55 164.95 186.55 159.19 186.55C155.47 168.32 139.31 154.55 120 154.55C97.94 154.55 80 172.5 80 194.55C80 216.61 97.94 234.55 120 234.55C130.02 234.55 139.07 230.72 146.1 224.62C148.01 226.08 157.58 233.39 174.82 246.55C157.58 259.71 148.01 267.03 146.1 268.49C139.07 262.39 130.02 258.55 120 258.55C97.94 258.55 80 276.5 80 298.55C80 320.61 97.94 338.55 120 338.55C130.02 338.55 139.07 334.72 146.1 328.62C148.01 330.08 157.58 337.39 174.82 350.55C157.58 363.71 148.01 371.03 146.1 372.49C139.07 366.39 130.02 362.55 120 362.55C97.94 362.55 80 380.5 80 402.55C80 424.61 97.94 442.55 120 442.55C139.31 442.55 155.47 428.79 159.19 410.55C164.95 410.55 211.05 410.55 216.81 410.55C217.49 413.87 218.7 416.97 220.14 419.94C212.74 425.59 153.5 470.83 146.1 476.48C139.07 470.39 130.02 466.55 120 466.55C97.94 466.55 80 484.5 80 506.55C80 528.61 97.94 546.55 120 546.55C142.06 546.55 160 528.61 160 506.55C160 500.3 158.43 494.45 155.86 489.17C163.26 483.51 222.5 438.28 229.9 432.63C236.93 438.72 245.98 442.55 256 442.55C275.31 442.55 291.47 428.79 295.19 410.55C297.91 410.55 311.52 410.55 336 410.55C336 420.15 336 425.49 336 426.55C336 439.79 346.77 450.55 360 450.55C373.23 450.55 384 439.79 384 426.55C384.85 426.55 389.08 426.55 396.69 426.55C452.88 482.75 484.1 513.97 490.34 520.21C491.84 521.71 493.88 522.55 496 522.55C497.75 522.55 511.72 522.55 513.47 522.55C516.78 531.84 525.58 538.55 536 538.55C549.23 538.55 560 527.79 560 514.55C560 501.32 549.23 490.55 536 490.55C525.58 490.55 516.78 497.27 513.47 506.55C512.53 506.55 507.81 506.55 499.31 506.55C443.12 450.36 411.9 419.14 405.66 412.9C404.16 411.39 402.12 410.55 400 410.55C398.93 410.55 393.6 410.55 384 410.55C384 408.95 384 400.95 384 386.55C406.01 386.55 418.24 386.55 420.69 386.55C457.68 423.55 478.23 444.1 482.34 448.21C483.84 449.71 485.88 450.55 488 450.55C490.55 450.55 510.92 450.55 513.47 450.55C516.78 459.84 525.58 466.55 536 466.55C549.23 466.55 560 455.79 560 442.55C560 429.32 549.23 418.55 536 418.55C525.58 418.55 516.78 425.27 513.47 434.55C511.99 434.55 504.61 434.55 491.31 434.55C454.32 397.56 433.77 377.01 429.66 372.9C428.16 371.39 426.12 370.55 424 370.55C421.33 370.55 408 370.55 384 370.55C384 368.95 384 360.95 384 346.55C425.21 346.55 448.11 346.55 452.69 346.55C470.48 364.35 480.37 374.23 482.34 376.21C483.84 377.71 485.88 378.55 488 378.55C490.55 378.55 510.92 378.55 513.47 378.55C516.78 387.84 525.58 394.55 536 394.55C549.23 394.55 560 383.79 560 370.55C560 357.32 549.23 346.55 536 346.55C525.58 346.55 516.78 353.27 513.47 362.55C511.99 362.55 504.61 362.55 491.31 362.55C473.52 344.76 463.63 334.87 461.66 332.9C460.16 331.39 458.12 330.55 456 330.55C451.2 330.55 427.2 330.55 384 330.55C384 328.15 384 308.95 384 306.55C461.68 306.55 504.84 306.55 513.47 306.55C516.78 315.84 525.58 322.55 536 322.55C549.23 322.55 560 311.79 560 298.55C560 285.32 549.23 274.55 536 274.55C525.58 274.55 516.78 281.27 513.47 290.55C504.84 290.55 461.68 290.55 384 290.55C384 288.15 384 268.95 384 266.55C427.2 266.55 451.2 266.55 456 266.55C458.12 266.55 460.16 265.71 461.66 264.21C463.63 262.23 473.52 252.35 491.31 234.55C504.61 234.55 511.99 234.55 513.47 234.55C516.78 243.84 525.58 250.55 536 250.55C549.23 250.55 560 239.79 560 226.55C560 213.32 549.23 202.55 536 202.55C525.58 202.55 516.78 209.27 513.47 218.55C510.92 218.55 490.55 218.55 488 218.55C485.88 218.55 483.84 219.39 482.34 220.9C480.37 222.87 470.48 232.76 452.69 250.55C448.11 250.55 425.21 250.55 384 250.55C384 236.15 384 228.15 384 226.55C408 226.55 421.33 226.55 424 226.55C426.12 226.55 428.16 225.71 429.66 224.21C433.77 220.1 454.32 199.55 491.31 162.55C504.61 162.55 511.99 162.55 513.47 162.55C516.78 171.84 525.58 178.55 536 178.55C549.23 178.55 560 167.79 560 154.55C560 141.32 549.23 130.55 536 130.55C525.58 130.55 516.78 137.27 513.47 146.55C510.92 146.55 490.55 146.55 488 146.55C485.88 146.55 483.84 147.39 482.34 148.9C478.23 153.01 457.68 173.56 420.69 210.55C418.24 210.55 406.01 210.55 384 210.55C384 196.15 384 188.15 384 186.55C392.53 186.55 397.87 186.55 400 186.55C402.12 186.55 404.16 185.71 405.66 184.21C411.9 177.97 443.12 146.75 499.31 90.55C507.81 90.55 512.53 90.55 513.47 90.55ZM536 74.55C540.41 74.55 544 78.14 544 82.55C544 86.97 540.41 90.55 536 90.55C531.59 90.55 528 86.97 528 82.55C528 78.14 531.59 74.55 536 74.55ZM536 506.55C540.41 506.55 544 510.14 544 514.55C544 518.97 540.41 522.55 536 522.55C531.59 522.55 528 518.97 528 514.55C528 510.14 531.59 506.55 536 506.55ZM536 434.55C540.41 434.55 544 438.14 544 442.55C544 446.97 540.41 450.55 536 450.55C531.59 450.55 528 446.97 528 442.55C528 438.14 531.59 434.55 536 434.55ZM536 362.55C540.41 362.55 544 366.14 544 370.55C544 374.97 540.41 378.55 536 378.55C531.59 378.55 528 374.97 528 370.55C528 366.14 531.59 362.55 536 362.55ZM536 290.55C540.41 290.55 544 294.14 544 298.55C544 302.97 540.41 306.55 536 306.55C531.59 306.55 528 302.97 528 298.55C528 294.14 531.59 290.55 536 290.55ZM536 218.55C540.41 218.55 544 222.14 544 226.55C544 230.97 540.41 234.55 536 234.55C531.59 234.55 528 230.97 528 226.55C528 222.14 531.59 218.55 536 218.55ZM536 146.55C540.41 146.55 544 150.14 544 154.55C544 158.97 540.41 162.55 536 162.55C531.59 162.55 528 158.97 528 154.55C528 150.14 531.59 146.55 536 146.55ZM256 258.55C245.98 258.55 236.93 262.39 229.9 268.49C227.99 267.03 218.42 259.71 201.18 246.55C218.42 233.39 227.99 226.08 229.9 224.62C236.93 230.72 245.98 234.55 256 234.55C275.31 234.55 291.47 220.79 295.19 202.55C300.63 202.55 314.24 202.55 336 202.55C336 220.15 336 281.75 336 290.55C311.52 290.55 297.91 290.55 295.19 290.55C291.47 272.32 275.32 258.55 256 258.55ZM232 298.55C232 285.32 242.77 274.55 256 274.55C269.23 274.55 280 285.32 280 298.55C280 311.79 269.23 322.55 256 322.55C242.77 322.55 232 311.79 232 298.55ZM256 170.55C269.23 170.55 280 181.32 280 194.55C280 207.79 269.23 218.55 256 218.55C242.77 218.55 232 207.79 232 194.55C232 181.32 242.77 170.55 256 170.55ZM120 114.55C106.77 114.55 96 103.79 96 90.55C96 77.32 106.77 66.55 120 66.55C133.23 66.55 144 77.32 144 90.55C144 103.79 133.23 114.55 120 114.55ZM120 218.55C106.77 218.55 96 207.79 96 194.55C96 181.32 106.77 170.55 120 170.55C133.23 170.55 144 181.32 144 194.55C144 207.79 133.23 218.55 120 218.55ZM220.14 211.94C218 213.57 207.29 221.76 188 236.49C170.86 223.39 160.14 215.21 155.86 211.94C157.3 208.97 158.51 205.87 159.19 202.55C164.95 202.55 211.05 202.55 216.81 202.55C217.49 205.87 218.7 208.97 220.14 211.94ZM155.86 281.17C158 279.53 168.71 271.35 188 256.63C205.14 269.72 215.86 277.9 220.14 281.17C218.7 284.14 217.49 287.23 216.81 290.55C211.05 290.55 164.95 290.55 159.19 290.55C158.51 287.23 157.3 284.14 155.86 281.17ZM120 322.55C106.77 322.55 96 311.79 96 298.55C96 285.32 106.77 274.55 120 274.55C133.23 274.55 144 285.32 144 298.55C144 311.79 133.23 322.55 120 322.55ZM220.14 315.94C218 317.57 207.29 325.76 188 340.49C170.86 327.39 160.14 319.21 155.86 315.94C157.3 312.97 158.51 309.87 159.19 306.55C164.95 306.55 211.05 306.55 216.81 306.55C217.49 309.87 218.7 312.97 220.14 315.94ZM220.14 385.17C218.7 388.14 217.49 391.23 216.81 394.55C205.28 394.55 164.95 394.55 159.19 394.55C158.51 391.23 157.3 388.14 155.86 385.17C158 383.53 168.71 375.35 188 360.63C207.29 375.35 218 383.53 220.14 385.17ZM120 426.55C106.77 426.55 96 415.79 96 402.55C96 389.32 106.77 378.55 120 378.55C133.23 378.55 144 389.32 144 402.55C144 415.79 133.23 426.55 120 426.55ZM120 530.55C106.77 530.55 96 519.79 96 506.55C96 493.32 106.77 482.55 120 482.55C133.23 482.55 144 493.32 144 506.55C144 519.79 133.23 530.55 120 530.55ZM256 426.55C242.77 426.55 232 415.79 232 402.55C232 389.32 242.77 378.55 256 378.55C269.23 378.55 280 389.32 280 402.55C280 415.79 269.23 426.55 256 426.55ZM201.18 350.55C218.42 337.39 227.99 330.08 229.9 328.62C236.93 334.72 245.98 338.55 256 338.55C275.31 338.55 291.47 324.79 295.19 306.55C297.91 306.55 311.52 306.55 336 306.55C336 315.35 336 385.75 336 394.55C314.24 394.55 300.63 394.55 295.19 394.55C291.47 376.32 275.32 362.55 256 362.55C245.98 362.55 236.93 366.39 229.9 372.49C227.99 371.03 218.42 363.71 201.18 350.55ZM352 162.55C352 158.14 355.59 154.55 360 154.55C364.41 154.55 368 158.14 368 162.55C368 215.35 368 373.75 368 426.55C368 430.97 364.41 434.55 360 434.55C355.59 434.55 352 430.97 352 426.55C352 400.15 352 188.95 352 162.55Z" id="dcrPfzSuM"></path><path d="M304 242.55L304 226.55L320 226.55L320 242.55L304 242.55Z" id="b2geqcBEt9"></path><path d="M304 242.55L304 226.55L320 226.55L320 242.55L304 242.55Z" id="ccWuM6x4v"></path><path d="M304 242.55L304 226.55L320 226.55L320 242.55L304 242.55Z" id="g9R2J2FF2"></path><path d="M304 242.55L304 226.55L320 226.55L320 242.55L304 242.55Z" id="d66JdJopvz"></path><path d="M304 242.55L304 226.55L320 226.55L320 242.55L304 242.55Z" id="bwtWNJlP4"></path><path d="M304 242.55L304 226.55L320 226.55L320 242.55L304 242.55Z" id="b575FeCdya"></path><path d="M304 242.55L304 226.55L320 226.55L320 242.55L304 242.55Z" id="bd5ClzJCJ"></path><path d="M304 242.55L304 226.55L320 226.55L320 242.55L304 242.55Z" id="c1AORCO59"></path><path d="M304 274.55L304 258.55L320 258.55L320 274.55L304 274.55Z" id="f26DFM6K2H"></path><path d="M304 274.55L304 258.55L320 258.55L320 274.55L304 274.55Z" id="d2uKgX1JSP"></path><path d="M304 274.55L304 258.55L320 258.55L320 274.55L304 274.55Z" id="a1PZXVbdzm"></path><path d="M304 274.55L304 258.55L320 258.55L320 274.55L304 274.55Z" id="bIvQQs1im"></path><path d="M304 274.55L304 258.55L320 258.55L320 274.55L304 274.55Z" id="amqLMdO3S"></path><path d="M304 274.55L304 258.55L320 258.55L320 274.55L304 274.55Z" id="a68jSJKCm0"></path><path d="M304 274.55L304 258.55L320 258.55L320 274.55L304 274.55Z" id="adoidB2tc"></path><path d="M304 274.55L304 258.55L320 258.55L320 274.55L304 274.55Z" id="d2TkoPrQXX"></path><path d="M304 338.55L304 322.55L320 322.55L320 338.55L304 338.55Z" id="cSCBnGnvW"></path><path d="M304 338.55L304 322.55L320 322.55L320 338.55L304 338.55Z" id="a3pHsGnOUc"></path><path d="M304 338.55L304 322.55L320 322.55L320 338.55L304 338.55Z" id="aOh54Qs5"></path><path d="M304 338.55L304 322.55L320 322.55L320 338.55L304 338.55Z" id="c3KeO5H3q6"></path><path d="M304 338.55L304 322.55L320 322.55L320 338.55L304 338.55Z" id="h7JRLAVwsq"></path><path d="M304 338.55L304 322.55L320 322.55L320 338.55L304 338.55Z" id="dFpsojE4G"></path><path d="M304 338.55L304 322.55L320 322.55L320 338.55L304 338.55Z" id="b1JmtOGfzH"></path><path d="M304 338.55L304 322.55L320 322.55L320 338.55L304 338.55Z" id="c11lZ66YYN"></path><path d="M304 370.55L304 354.55L320 354.55L320 370.55L304 370.55Z" id="oeCTRXGs2"></path><path d="M304 370.55L304 354.55L320 354.55L320 370.55L304 370.55Z" id="alB69xQPH"></path><path d="M304 370.55L304 354.55L320 354.55L320 370.55L304 370.55Z" id="gCuP2yPmf"></path><path d="M304 370.55L304 354.55L320 354.55L320 370.55L304 370.55Z" id="b29lpN1Tgq"></path><path d="M304 370.55L304 354.55L320 354.55L320 370.55L304 370.55Z" id="h7D1BhZux"></path><path d="M304 370.55L304 354.55L320 354.55L320 370.55L304 370.55Z" id="a198rtQbF9"></path><path d="M304 370.55L304 354.55L320 354.55L320 370.55L304 370.55Z" id="b2hXcbUj3d"></path><path d="M304 370.55L304 354.55L320 354.55L320 370.55L304 370.55Z" id="a4OFpwNVf"></path></defs><g><g><g><use xlink:href="#a1dxtYQJNa" opacity="1" fill="#7960b1" fill-opacity="0.3"></use><g><use xlink:href="#a1dxtYQJNa" opacity="1" fill-opacity="0" stroke="#000000" stroke-width="1" stroke-opacity="0"></use></g></g><g><use xlink:href="#b1RxmwBy2" opacity="1" fill="#000000" fill-opacity="0"></use><g><use xlink:href="#b1RxmwBy2" opacity="1" fill-opacity="0" stroke="#000000" stroke-width="1" stroke-opacity="0"></use></g></g><g><use xlink:href="#anUHarPVU" opacity="1" fill="#7960b1" fill-opacity="0.3"></use><g><use xlink:href="#anUHarPVU" opacity="1" fill-opacity="0" stroke="#000000" stroke-width="1" stroke-opacity="0"></use></g></g><g><use xlink:href="#aolR5ilYe" opacity="1" fill="#000000" fill-opacity="0"></use><g><use xlink:href="#aolR5ilYe" opacity="1" fill-opacity="0" stroke="#000000" stroke-width="1" stroke-opacity="0"></use></g></g><g><use xlink:href="#b1ClVifh9C" opacity="1" fill="#7960b1" fill-opacity="0.3"></use><g><use xlink:href="#b1ClVifh9C" opacity="1" fill-opacity="0" stroke="#000000" stroke-width="1" stroke-opacity="0"></use></g></g><g><use xlink:href="#d1683VLw7S" opacity="1" fill="#000000" fill-opacity="0"></use><g><use xlink:href="#d1683VLw7S" opacity="1" fill-opacity="0" stroke="#000000" stroke-width="1" stroke-opacity="0"></use></g></g><g><use xlink:href="#bUWVfV8cg" opacity="1" fill="#7960b1" fill-opacity="0.3"></use><g><use xlink:href="#bUWVfV8cg" opacity="1" fill-opacity="0" stroke="#000000" stroke-width="1" stroke-opacity="0"></use></g></g><g><use xlink:href="#dcrPfzSuM" opacity="1" fill="#7d60b1" fill-opacity="0.69"></use><g><use xlink:href="#dcrPfzSuM" opacity="1" fill-opacity="0" stroke="#000000" stroke-width="1" stroke-opacity="0"></use></g></g><g><use xlink:href="#b2geqcBEt9" opacity="1" fill="#7960b1" fill-opacity="0.3"></use><g><use xlink:href="#b2geqcBEt9" opacity="1" fill-opacity="0" stroke="#000000" stroke-width="1" stroke-opacity="0"></use></g></g><g><use xlink:href="#ccWuM6x4v" opacity="1" fill="#000000" fill-opacity="0"></use><g><use xlink:href="#ccWuM6x4v" opacity="1" fill-opacity="0" stroke="#000000" stroke-width="1" stroke-opacity="0"></use></g></g><g><use xlink:href="#g9R2J2FF2" opacity="1" fill="#7960b1" fill-opacity="0.3"></use><g><use xlink:href="#g9R2J2FF2" opacity="1" fill-opacity="0" stroke="#000000" stroke-width="1" stroke-opacity="0"></use></g></g><g><use xlink:href="#d66JdJopvz" opacity="1" fill="#000000" fill-opacity="0"></use><g><use xlink:href="#d66JdJopvz" opacity="1" fill-opacity="0" stroke="#000000" stroke-width="1" stroke-opacity="0"></use></g></g><g><use xlink:href="#bwtWNJlP4" opacity="1" fill="#7960b1" fill-opacity="0.3"></use><g><use xlink:href="#bwtWNJlP4" opacity="1" fill-opacity="0" stroke="#000000" stroke-width="1" stroke-opacity="0"></use></g></g><g><use xlink:href="#b575FeCdya" opacity="1" fill="#000000" fill-opacity="0"></use><g><use xlink:href="#b575FeCdya" opacity="1" fill-opacity="0" stroke="#000000" stroke-width="1" stroke-opacity="0"></use></g></g><g><use xlink:href="#bd5ClzJCJ" opacity="1" fill="#7960b1" fill-opacity="0.3"></use><g><use xlink:href="#bd5ClzJCJ" opacity="1" fill-opacity="0" stroke="#000000" stroke-width="1" stroke-opacity="0"></use></g></g><g><use xlink:href="#c1AORCO59" opacity="1" fill="#000000" fill-opacity="0"></use><g><use xlink:href="#c1AORCO59" opacity="1" fill-opacity="0" stroke="#000000" stroke-width="1" stroke-opacity="0"></use></g></g><g><use xlink:href="#f26DFM6K2H" opacity="1" fill="#7960b1" fill-opacity="0.3"></use><g><use xlink:href="#f26DFM6K2H" opacity="1" fill-opacity="0" stroke="#000000" stroke-width="1" stroke-opacity="0"></use></g></g><g><use xlink:href="#d2uKgX1JSP" opacity="1" fill="#000000" fill-opacity="0"></use><g><use xlink:href="#d2uKgX1JSP" opacity="1" fill-opacity="0" stroke="#000000" stroke-width="1" stroke-opacity="0"></use></g></g><g><use xlink:href="#a1PZXVbdzm" opacity="1" fill="#7960b1" fill-opacity="0.3"></use><g><use xlink:href="#a1PZXVbdzm" opacity="1" fill-opacity="0" stroke="#000000" stroke-width="1" stroke-opacity="0"></use></g></g><g><use xlink:href="#bIvQQs1im" opacity="1" fill="#000000" fill-opacity="0"></use><g><use xlink:href="#bIvQQs1im" opacity="1" fill-opacity="0" stroke="#000000" stroke-width="1" stroke-opacity="0"></use></g></g><g><use xlink:href="#amqLMdO3S" opacity="1" fill="#7960b1" fill-opacity="0.3"></use><g><use xlink:href="#amqLMdO3S" opacity="1" fill-opacity="0" stroke="#000000" stroke-width="1" stroke-opacity="0"></use></g></g><g><use xlink:href="#a68jSJKCm0" opacity="1" fill="#000000" fill-opacity="0"></use><g><use xlink:href="#a68jSJKCm0" opacity="1" fill-opacity="0" stroke="#000000" stroke-width="1" stroke-opacity="0"></use></g></g><g><use xlink:href="#adoidB2tc" opacity="1" fill="#7960b1" fill-opacity="0.3"></use><g><use xlink:href="#adoidB2tc" opacity="1" fill-opacity="0" stroke="#000000" stroke-width="1" stroke-opacity="0"></use></g></g><g><use xlink:href="#d2TkoPrQXX" opacity="1" fill="#000000" fill-opacity="0"></use><g><use xlink:href="#d2TkoPrQXX" opacity="1" fill-opacity="0" stroke="#000000" stroke-width="1" stroke-opacity="0"></use></g></g><g><use xlink:href="#cSCBnGnvW" opacity="1" fill="#7960b1" fill-opacity="0.3"></use><g><use xlink:href="#cSCBnGnvW" opacity="1" fill-opacity="0" stroke="#000000" stroke-width="1" stroke-opacity="0"></use></g></g><g><use xlink:href="#a3pHsGnOUc" opacity="1" fill="#000000" fill-opacity="0"></use><g><use xlink:href="#a3pHsGnOUc" opacity="1" fill-opacity="0" stroke="#000000" stroke-width="1" stroke-opacity="0"></use></g></g><g><use xlink:href="#aOh54Qs5" opacity="1" fill="#7960b1" fill-opacity="0.3"></use><g><use xlink:href="#aOh54Qs5" opacity="1" fill-opacity="0" stroke="#000000" stroke-width="1" stroke-opacity="0"></use></g></g><g><use xlink:href="#c3KeO5H3q6" opacity="1" fill="#000000" fill-opacity="0"></use><g><use xlink:href="#c3KeO5H3q6" opacity="1" fill-opacity="0" stroke="#000000" stroke-width="1" stroke-opacity="0"></use></g></g><g><use xlink:href="#h7JRLAVwsq" opacity="1" fill="#7960b1" fill-opacity="0.3"></use><g><use xlink:href="#h7JRLAVwsq" opacity="1" fill-opacity="0" stroke="#000000" stroke-width="1" stroke-opacity="0"></use></g></g><g><use xlink:href="#dFpsojE4G" opacity="1" fill="#000000" fill-opacity="0"></use><g><use xlink:href="#dFpsojE4G" opacity="1" fill-opacity="0" stroke="#000000" stroke-width="1" stroke-opacity="0"></use></g></g><g><use xlink:href="#b1JmtOGfzH" opacity="1" fill="#7960b1" fill-opacity="0.3"></use><g><use xlink:href="#b1JmtOGfzH" opacity="1" fill-opacity="0" stroke="#000000" stroke-width="1" stroke-opacity="0"></use></g></g><g><use xlink:href="#c11lZ66YYN" opacity="1" fill="#000000" fill-opacity="0"></use><g><use xlink:href="#c11lZ66YYN" opacity="1" fill-opacity="0" stroke="#000000" stroke-width="1" stroke-opacity="0"></use></g></g><g><use xlink:href="#oeCTRXGs2" opacity="1" fill="#7960b1" fill-opacity="0.3"></use><g><use xlink:href="#oeCTRXGs2" opacity="1" fill-opacity="0" stroke="#000000" stroke-width="1" stroke-opacity="0"></use></g></g><g><use xlink:href="#alB69xQPH" opacity="1" fill="#000000" fill-opacity="0"></use><g><use xlink:href="#alB69xQPH" opacity="1" fill-opacity="0" stroke="#000000" stroke-width="1" stroke-opacity="0"></use></g></g><g><use xlink:href="#gCuP2yPmf" opacity="1" fill="#7960b1" fill-opacity="0.3"></use><g><use xlink:href="#gCuP2yPmf" opacity="1" fill-opacity="0" stroke="#000000" stroke-width="1" stroke-opacity="0"></use></g></g><g><use xlink:href="#b29lpN1Tgq" opacity="1" fill="#000000" fill-opacity="0"></use><g><use xlink:href="#b29lpN1Tgq" opacity="1" fill-opacity="0" stroke="#000000" stroke-width="1" stroke-opacity="0"></use></g></g><g><use xlink:href="#h7D1BhZux" opacity="1" fill="#7960b1" fill-opacity="0.3"></use><g><use xlink:href="#h7D1BhZux" opacity="1" fill-opacity="0" stroke="#000000" stroke-width="1" stroke-opacity="0"></use></g></g><g><use xlink:href="#a198rtQbF9" opacity="1" fill="#000000" fill-opacity="0"></use><g><use xlink:href="#a198rtQbF9" opacity="1" fill-opacity="0" stroke="#000000" stroke-width="1" stroke-opacity="0"></use></g></g><g><use xlink:href="#b2hXcbUj3d" opacity="1" fill="#7960b1" fill-opacity="0.3"></use><g><use xlink:href="#b2hXcbUj3d" opacity="1" fill-opacity="0" stroke="#000000" stroke-width="1" stroke-opacity="0"></use></g></g><g><use xlink:href="#a4OFpwNVf" opacity="1" fill="#000000" fill-opacity="0"></use><g><use xlink:href="#a4OFpwNVf" opacity="1" fill-opacity="0" stroke="#000000" stroke-width="1" stroke-opacity="0"></use></g></g></g></g></svg>