<?xml version="1.0" encoding="UTF-8" standalone="no" ?>
<!DOCTYPE svg PUBLIC "-//W3C//DTD SVG 1.1//EN" "http://www.w3.org/Graphics/SVG/1.1/DTD/svg11.dtd">
<svg version="1.1" xmlns="http://www.w3.org/2000/svg" xmlns:xlink="http://www.w3.org/1999/xlink" preserveAspectRatio="xMidYMid meet" viewBox="0 0 640 640" width="300" height="300">
    <defs>
        <path d="M321.12 284.3C326.33 280.58 331.34 276.85 333.66 274.64C344.22 264.54 344.71 255.88 345.59 247.51C346.45 239.34 344.02 225.12 336.1 218.71C335.59 218.29 334.94 218.11 334.3 218.01C331.34 217.56 325.33 220.99 321.53 226.3C311.23 240.69 311.67 253.02 314.54 268.59C314.58 268.8 314.78 269.9 315.09 271.73C299.99 281.6 279.27 294.59 277.34 313.58C276.49 321.94 279.82 332.11 287.9 339.59C294.85 346.04 306.49 351.66 317.88 352.18C321.7 352.35 325.29 352.16 328.63 351.66C330.1 360.37 331.13 366.41 331.29 367.29C336.03 393.34 305.23 390.34 301.14 384.58C303.8 384.77 314.22 384.51 314.81 376.15C315.46 366.72 303.14 361.8 294.67 367.54C283.68 375 291.57 394.63 316.11 392.18C327.47 391.05 338.61 384.7 335.75 369.38C335.67 368.97 334.4 361.57 332.56 350.89C345.94 347.66 354.31 339.01 354.97 328.65C356 312.62 344.19 304 331.47 302.47C328.95 302.16 326.53 302.14 324.23 302.36C323.1 295.85 322.04 289.67 321.12 284.3ZM335.34 233.26C342.54 233.89 341.96 242.26 338.33 249.41C336.46 253.1 334.7 256.6 326.29 263.78C324.22 265.56 321.56 267.43 318.57 269.44C318.18 267.18 317.93 265.76 317.87 265.39C316.49 257.5 318 252.24 320.28 247.01C322.8 241.19 328.45 232.67 335.34 233.26ZM288.66 312.46C292.6 305.13 299.89 299.06 309.94 292.11C312.14 290.59 314.83 288.73 317.64 286.76C318.46 291.61 319.39 297.13 320.38 302.96C307.16 305.91 298.96 317 301 326.66C302.76 334.99 309.88 339.83 316.32 340.43C316.58 340.46 317.64 340.54 317.64 340.54C317.64 340.54 313.32 337.31 311.96 336.2C307.98 332.97 305.38 326.18 311.29 319.73C314.12 316.64 318.07 314.88 322.29 314.29C324.33 326.33 326.41 338.64 328.07 348.38C324.87 348.94 321.17 349.23 316.88 349.19C308.84 349.11 299.27 345.43 293.51 340.24C283.49 331.05 284.23 320.69 288.66 312.46ZM345.98 330.89C345.84 338.01 342.37 344.52 331.98 347.49C330.3 337.72 328.25 325.79 326.23 314.08C336.17 314.35 346.2 320.57 345.98 330.89Z" id="eHi4gYXdY"></path>
    </defs>
    <g>
        <g>
            <g>
                <use xlink:href="#eHi4gYXdY" opacity="1" fill="#0e0808" fill-opacity="0"></use>
                <g>
                    <use xlink:href="#eHi4gYXdY" opacity="1" fill-opacity="0" stroke="#000000" stroke-width="1" stroke-opacity="0"></use>
                </g>
            </g>
        </g>
    </g>
</svg>