<?xml version="1.0" encoding="UTF-8" standalone="no"?>
<!DOCTYPE svg PUBLIC "-//W3C//DTD SVG 1.1//EN" "http://www.w3.org/Graphics/SVG/1.1/DTD/svg11.dtd">
<svg version="1.1" xmlns="http://www.w3.org/2000/svg" xmlns:xlink="http://www.w3.org/1999/xlink" preserveAspectRatio="xMidYMid meet" viewBox="0 0 640 640" width="640" height="640"><defs><path d="M634.62 381.89L420.91 381.89L383.41 455.02L256.59 455.02L219.09 381.89L5.38 381.89L44.13 272.19L245 272.19L245 381.89L395 381.89L395 272.19L595.87 272.19L634.62 381.89Z" id="d1h0PdiKo7"></path><linearGradient id="gradientce0tn2dYA" gradientUnits="userSpaceOnUse" x1="629.34" y1="-64.98" x2="5.38" y2="446.96"><stop style="stop-color: #44277e;stop-opacity: 0.73" offset="0%"></stop><stop style="stop-color: #44267c;stop-opacity: 0.52" offset="5.921993553560449%"></stop><stop style="stop-color: #3e2075;stop-opacity: 0.69" offset="46.25423315405218%"></stop><stop style="stop-color: #3a1d71;stop-opacity: 0.83" offset="66.07726550901691%"></stop><stop style="stop-color: #35186b;stop-opacity: 1" offset="100%"></stop></linearGradient><path d="M444.09 418.46L406.59 491.59L233.41 491.59L195.91 418.46L0 418.46L0 637.86L640 637.86L640 418.46L444.09 418.46ZM413.75 564.72L226.25 564.72L226.25 528.16L413.75 528.16L413.75 564.72Z" id="acj7G5S7w"></path><linearGradient id="gradientcNjMiLIzm" gradientUnits="userSpaceOnUse" x1="634.62" y1="13.85" x2="0" y2="628.18"><stop style="stop-color: #44277e;stop-opacity: 0.73" offset="0%"></stop><stop style="stop-color: #44267c;stop-opacity: 0.52" offset="5.921993553560449%"></stop><stop style="stop-color: #3e2075;stop-opacity: 0.69" offset="46.25423315405218%"></stop><stop style="stop-color: #3a1d71;stop-opacity: 0.83" offset="66.07726550901691%"></stop><stop style="stop-color: #35186b;stop-opacity: 1" offset="100%"></stop></linearGradient><path d="M282.5 345.32L282.5 199.06L232.68 199.06L320 95.62L407.32 199.06L357.5 199.06L357.5 345.32L282.5 345.32Z" id="a48VyejZZR"></path><linearGradient id="gradientdcE2nwQ4m" gradientUnits="userSpaceOnUse" x1="405.85" y1="-364.86" x2="232.68" y2="334.31"><stop style="stop-color: #44277e;stop-opacity: 0.73" offset="0%"></stop><stop style="stop-color: #44267c;stop-opacity: 0.52" offset="5.921993553560449%"></stop><stop style="stop-color: #3e2075;stop-opacity: 0.69" offset="46.25423315405218%"></stop><stop style="stop-color: #3a1d71;stop-opacity: 0.83" offset="66.07726550901691%"></stop><stop style="stop-color: #35186b;stop-opacity: 1" offset="100%"></stop></linearGradient></defs><g><g><g><use xlink:href="#d1h0PdiKo7" opacity="1" fill="url(#gradientce0tn2dYA)"></use><g><use xlink:href="#d1h0PdiKo7" opacity="1" fill-opacity="0" stroke="#000000" stroke-width="1" stroke-opacity="0"></use></g></g><g><use xlink:href="#acj7G5S7w" opacity="1" fill="url(#gradientcNjMiLIzm)"></use><g><use xlink:href="#acj7G5S7w" opacity="1" fill-opacity="0" stroke="#000000" stroke-width="1" stroke-opacity="0"></use></g></g><g><use xlink:href="#a48VyejZZR" opacity="1" fill="url(#gradientdcE2nwQ4m)"></use><g><use xlink:href="#a48VyejZZR" opacity="1" fill-opacity="0" stroke="#000000" stroke-width="1" stroke-opacity="0"></use></g></g></g></g></svg>