<?xml version="1.0"?>
<svg xmlns="http://www.w3.org/2000/svg" id="Layer_1" data-name="Layer 1" viewBox="0 0 512 512" width="512" height="512"><path d="M332,70.811A65.81,65.81,0,0,0,266.19,5H245.81A65.81,65.81,0,0,0,180,70.811V230.189A65.81,65.81,0,0,0,245.81,296h20.38A65.81,65.81,0,0,0,332,230.189ZM265.969,284H246.031a53.448,53.448,0,0,1-53.581-49h127.1A53.448,53.448,0,0,1,265.969,284ZM320,184v39H192V184ZM192,172V132H320v40ZM246.031,17h19.938A54.061,54.061,0,0,1,320,70.811V120H192V70.811A54.061,54.061,0,0,1,246.031,17Z"/><path d="M384.038,495h-29.2c-2.485-33.866-30.813-61-65.3-61H262V342.483a120.474,120.474,0,0,0,81.688-37.5A123.54,123.54,0,0,0,378,219.087V173.816a6,6,0,0,0-12,0v45.271a111.6,111.6,0,0,1-30.982,77.6A109.8,109.8,0,0,1,146,220.335V173.816a6,6,0,0,0-12,0v46.519A122.2,122.2,0,0,0,250,342.491V434H222.462c-34.49,0-62.818,27.134-65.3,61h-29.2a6,6,0,1,0,0,12H384.038a6,6,0,0,0,0-12ZM222.462,446h67.076c27.87,0,50.819,21.758,53.271,49H169.191C171.643,467.758,194.592,446,222.462,446Z"/></svg>
